<?xml version="1.0" encoding="UTF-8" standalone="no"?>
<!DOCTYPE svg PUBLIC "-//W3C//DTD SVG 1.1//EN"
 "http://www.w3.org/Graphics/SVG/1.1/DTD/svg11.dtd">
<!-- Generated by graphviz version 2.28.0 (20110507.0327)
 -->
<!-- Title: contract Pages: 1 -->
<svg width="811pt" height="476pt"
 viewBox="0.00 0.00 811.00 476.00" xmlns="http://www.w3.org/2000/svg" xmlns:xlink="http://www.w3.org/1999/xlink">
<g id="graph1" class="graph" transform="scale(1 1) rotate(0) translate(4 472)">
<title>contract</title>
<polygon fill="white" stroke="white" points="-4,5 -4,-472 808,-472 808,5 -4,5"/>
<!-- 0 -->
<g id="node1" class="node"><title>0</title>
<ellipse fill="none" stroke="black" cx="569" cy="-441" rx="114.327" ry="26.7407"/>
<text text-anchor="middle" x="569" y="-444.8" font-family="Times New Roman,serif" font-size="14.00">wait</text>
<text text-anchor="middle" x="569" y="-429.8" font-family="Times New Roman,serif" font-size="14.00">2011&#45;01&#45;01 00:00:00 UTC</text>
</g>
<!-- 1 -->
<g id="node2" class="node"><title>1</title>
<ellipse fill="none" stroke="black" cx="569" cy="-360" rx="122.259" ry="18"/>
<text text-anchor="middle" x="569" y="-356.3" font-family="Times New Roman,serif" font-size="14.00">(cpardTemperatureUK &lt;= 5.0)</text>
</g>
<!-- 0&#45;&gt;1 -->
<g id="edge2" class="edge"><title>0&#45;&gt;1</title>
<path fill="none" stroke="black" d="M569,-413.694C569,-405.58 569,-396.626 569,-388.438"/>
<polygon fill="black" stroke="black" points="572.5,-388.248 569,-378.248 565.5,-388.248 572.5,-388.248"/>
</g>
<!-- 2 -->
<g id="node3" class="node"><title>2</title>
<ellipse fill="none" stroke="black" cx="569" cy="-279" rx="114.327" ry="26.7407"/>
<text text-anchor="middle" x="569" y="-282.8" font-family="Times New Roman,serif" font-size="14.00">choose opt</text>
<text text-anchor="middle" x="569" y="-267.8" font-family="Times New Roman,serif" font-size="14.00">2011&#45;06&#45;01 00:00:00 UTC</text>
</g>
<!-- 1&#45;&gt;2 -->
<g id="edge4" class="edge"><title>1&#45;&gt;2</title>
<path fill="none" stroke="black" d="M569,-341.858C569,-334.356 569,-325.25 569,-316.358"/>
<polygon fill="black" stroke="black" points="572.5,-316.126 569,-306.126 565.5,-316.126 572.5,-316.126"/>
</g>
<!-- 3 -->
<g id="node4" class="node"><title>3</title>
<ellipse fill="none" stroke="black" cx="364" cy="-189" rx="364.301" ry="26.7407"/>
<text text-anchor="middle" x="364" y="-192.8" font-family="Times New Roman,serif" font-size="14.00">receive 10.0 Physical (Commodity &quot;gas&quot;) (Unit &quot;thm&quot;) (Location &quot;nbp&quot;) Nothing Nothing</text>
<text text-anchor="middle" x="364" y="-177.8" font-family="Times New Roman,serif" font-size="14.00">2011&#45;06&#45;01 00:00:00 UTC</text>
</g>
<!-- 2&#45;&gt;3 -->
<g id="edge6" class="edge"><title>2&#45;&gt;3</title>
<path fill="none" stroke="black" d="M515.674,-255.109C490.417,-244.267 459.939,-231.184 432.95,-219.598"/>
<polygon fill="black" stroke="black" points="434.133,-216.297 423.563,-215.569 431.372,-222.73 434.133,-216.297"/>
</g>
<!-- 6 -->
<g id="node7" class="node"><title>6</title>
<ellipse fill="none" stroke="black" cx="775" cy="-189" rx="28.3955" ry="18"/>
<text text-anchor="middle" x="775" y="-185.3" font-family="Times New Roman,serif" font-size="14.00">done</text>
</g>
<!-- 2&#45;&gt;6 -->
<g id="edge8" class="edge"><title>2&#45;&gt;6</title>
<path fill="none" stroke="black" d="M636.844,-257.226C668.106,-246.586 705.235,-232.408 737,-216 741.024,-213.922 745.128,-211.49 749.079,-208.962"/>
<polygon fill="black" stroke="black" points="751.045,-211.858 757.396,-203.378 747.143,-206.047 751.045,-211.858"/>
</g>
<!-- 4 -->
<g id="node5" class="node"><title>4</title>
<ellipse fill="none" stroke="black" cx="364" cy="-99" rx="304.145" ry="26.7407"/>
<text text-anchor="middle" x="364" y="-102.8" font-family="Times New Roman,serif" font-size="14.00">provide 25.0 Financial (Currency &quot;gbp&quot;) (CashFlowType &quot;cash&quot;) Nothing</text>
<text text-anchor="middle" x="364" y="-87.8" font-family="Times New Roman,serif" font-size="14.00">2011&#45;06&#45;01 00:00:00 UTC</text>
</g>
<!-- 3&#45;&gt;4 -->
<g id="edge10" class="edge"><title>3&#45;&gt;4</title>
<path fill="none" stroke="black" d="M364,-162.073C364,-153.999 364,-144.943 364,-136.296"/>
<polygon fill="black" stroke="black" points="367.5,-136.046 364,-126.046 360.5,-136.046 367.5,-136.046"/>
</g>
<!-- 5 -->
<g id="node6" class="node"><title>5</title>
<ellipse fill="none" stroke="black" cx="364" cy="-18" rx="28.3955" ry="18"/>
<text text-anchor="middle" x="364" y="-14.3" font-family="Times New Roman,serif" font-size="14.00">done</text>
</g>
<!-- 4&#45;&gt;5 -->
<g id="edge12" class="edge"><title>4&#45;&gt;5</title>
<path fill="none" stroke="black" d="M364,-71.6941C364,-63.5798 364,-54.6261 364,-46.4375"/>
<polygon fill="black" stroke="black" points="367.5,-46.2484 364,-36.2484 360.5,-46.2484 367.5,-46.2484"/>
</g>
</g>
</svg>
