<?xml version="1.0" encoding="UTF-8" standalone="no"?>
<!DOCTYPE svg PUBLIC "-//W3C//DTD SVG 1.1//EN"
 "http://www.w3.org/Graphics/SVG/1.1/DTD/svg11.dtd">
<!-- Generated by graphviz version 2.28.0 (20110507.0327)
 -->
<!-- Title: contract Pages: 1 -->
<svg width="1319pt" height="206pt"
 viewBox="0.00 0.00 1319.00 206.00" xmlns="http://www.w3.org/2000/svg" xmlns:xlink="http://www.w3.org/1999/xlink">
<g id="graph1" class="graph" transform="scale(1 1) rotate(0) translate(4 202)">
<title>contract</title>
<polygon fill="white" stroke="white" points="-4,5 -4,-202 1316,-202 1316,5 -4,5"/>
<!-- 0 -->
<g id="node1" class="node"><title>0</title>
<ellipse fill="none" stroke="black" cx="408" cy="-180" rx="60.1672" ry="18"/>
<text text-anchor="middle" x="408" y="-176.3" font-family="Times New Roman,serif" font-size="14.00">observe cond</text>
</g>
<!-- 1 -->
<g id="node2" class="node"><title>1</title>
<ellipse fill="none" stroke="black" cx="46" cy="-99" rx="46.1964" ry="18"/>
<text text-anchor="middle" x="46" y="-95.3" font-family="Times New Roman,serif" font-size="14.00">cparbFoo</text>
</g>
<!-- 0&#45;&gt;1 -->
<g id="edge2" class="edge"><title>0&#45;&gt;1</title>
<path fill="none" stroke="black" d="M351.395,-173.704C289.171,-166.851 186.778,-152.512 102,-126 95.2639,-123.893 88.2883,-121.151 81.6421,-118.238"/>
<polygon fill="black" stroke="black" points="82.7545,-114.897 72.2064,-113.904 79.8326,-121.259 82.7545,-114.897"/>
</g>
<!-- 2 -->
<g id="node3" class="node"><title>2</title>
<ellipse fill="none" stroke="black" cx="408" cy="-99" rx="296.477" ry="26.7407"/>
<text text-anchor="middle" x="408" y="-102.8" font-family="Times New Roman,serif" font-size="14.00">receive 1.0 Financial (Currency &quot;gbp&quot;) (CashFlowType &quot;cash&quot;) Nothing</text>
<text text-anchor="middle" x="408" y="-87.8" font-family="Times New Roman,serif" font-size="14.00">2011&#45;01&#45;01 00:00:00 UTC</text>
</g>
<!-- 0&#45;&gt;2 -->
<g id="edge4" class="edge"><title>0&#45;&gt;2</title>
<path fill="none" stroke="black" d="M408,-161.858C408,-154.356 408,-145.25 408,-136.358"/>
<polygon fill="black" stroke="black" points="411.5,-136.126 408,-126.126 404.5,-136.126 411.5,-136.126"/>
</g>
<!-- 4 -->
<g id="node5" class="node"><title>4</title>
<ellipse fill="none" stroke="black" cx="1017" cy="-99" rx="294.235" ry="26.7407"/>
<text text-anchor="middle" x="1017" y="-102.8" font-family="Times New Roman,serif" font-size="14.00">receive 1.0 Financial (Currency &quot;eur&quot;) (CashFlowType &quot;cash&quot;) Nothing</text>
<text text-anchor="middle" x="1017" y="-87.8" font-family="Times New Roman,serif" font-size="14.00">2011&#45;01&#45;01 00:00:00 UTC</text>
</g>
<!-- 0&#45;&gt;4 -->
<g id="edge6" class="edge"><title>0&#45;&gt;4</title>
<path fill="none" stroke="black" d="M462.045,-171.989C546.591,-161.022 713.79,-139.333 842.667,-122.615"/>
<polygon fill="black" stroke="black" points="843.193,-126.076 852.66,-121.318 842.293,-119.134 843.193,-126.076"/>
</g>
<!-- 3 -->
<g id="node4" class="node"><title>3</title>
<ellipse fill="none" stroke="black" cx="408" cy="-18" rx="28.3955" ry="18"/>
<text text-anchor="middle" x="408" y="-14.3" font-family="Times New Roman,serif" font-size="14.00">done</text>
</g>
<!-- 2&#45;&gt;3 -->
<g id="edge8" class="edge"><title>2&#45;&gt;3</title>
<path fill="none" stroke="black" d="M408,-71.6941C408,-63.5798 408,-54.6261 408,-46.4375"/>
<polygon fill="black" stroke="black" points="411.5,-46.2484 408,-36.2484 404.5,-46.2484 411.5,-46.2484"/>
</g>
<!-- 5 -->
<g id="node6" class="node"><title>5</title>
<ellipse fill="none" stroke="black" cx="1017" cy="-18" rx="28.3955" ry="18"/>
<text text-anchor="middle" x="1017" y="-14.3" font-family="Times New Roman,serif" font-size="14.00">done</text>
</g>
<!-- 4&#45;&gt;5 -->
<g id="edge10" class="edge"><title>4&#45;&gt;5</title>
<path fill="none" stroke="black" d="M1017,-71.6941C1017,-63.5798 1017,-54.6261 1017,-46.4375"/>
<polygon fill="black" stroke="black" points="1020.5,-46.2484 1017,-36.2484 1013.5,-46.2484 1020.5,-46.2484"/>
</g>
</g>
</svg>
