<?xml version="1.0" encoding="UTF-8" standalone="no"?>
<!DOCTYPE svg PUBLIC "-//W3C//DTD SVG 1.1//EN"
 "http://www.w3.org/Graphics/SVG/1.1/DTD/svg11.dtd">
<!-- Generated by graphviz version 2.28.0 (20110507.0327)
 -->
<!-- Title: contract Pages: 1 -->
<svg width="2309pt" height="476pt"
 viewBox="0.00 0.00 2309.00 476.00" xmlns="http://www.w3.org/2000/svg" xmlns:xlink="http://www.w3.org/1999/xlink">
<g id="graph1" class="graph" transform="scale(1 1) rotate(0) translate(4 472)">
<title>contract</title>
<polygon fill="white" stroke="white" points="-4,5 -4,-472 2306,-472 2306,5 -4,5"/>
<!-- 0 -->
<g id="node1" class="node"><title>0</title>
<ellipse fill="none" stroke="black" cx="1077" cy="-450" rx="27" ry="18"/>
<text text-anchor="middle" x="1077" y="-446.3" font-family="Times New Roman,serif" font-size="14.00">and</text>
</g>
<!-- 1 -->
<g id="node2" class="node"><title>1</title>
<ellipse fill="none" stroke="black" cx="728" cy="-378" rx="27" ry="18"/>
<text text-anchor="middle" x="728" y="-374.3" font-family="Times New Roman,serif" font-size="14.00">and</text>
</g>
<!-- 0&#45;&gt;1 -->
<g id="edge2" class="edge"><title>0&#45;&gt;1</title>
<path fill="none" stroke="black" d="M1051.34,-443.853C989.948,-431.54 834.49,-400.359 763.88,-386.197"/>
<polygon fill="black" stroke="black" points="764.193,-382.69 753.7,-384.155 762.817,-389.553 764.193,-382.69"/>
</g>
<!-- 20 -->
<g id="node21" class="node"><title>20</title>
<ellipse fill="none" stroke="black" cx="1387" cy="-378" rx="27" ry="18"/>
<text text-anchor="middle" x="1387" y="-374.3" font-family="Times New Roman,serif" font-size="14.00">and</text>
</g>
<!-- 0&#45;&gt;20 -->
<g id="edge4" class="edge"><title>0&#45;&gt;20</title>
<path fill="none" stroke="black" d="M1102.11,-443.331C1157.13,-430.906 1288.48,-401.246 1351.75,-386.959"/>
<polygon fill="black" stroke="black" points="1352.68,-390.339 1361.66,-384.722 1351.13,-383.511 1352.68,-390.339"/>
</g>
<!-- 2 -->
<g id="node3" class="node"><title>2</title>
<ellipse fill="none" stroke="black" cx="409" cy="-306" rx="27" ry="18"/>
<text text-anchor="middle" x="409" y="-302.3" font-family="Times New Roman,serif" font-size="14.00">give</text>
</g>
<!-- 1&#45;&gt;2 -->
<g id="edge6" class="edge"><title>1&#45;&gt;2</title>
<path fill="none" stroke="black" d="M702.702,-371.449C646.167,-359.043 509.456,-329.044 444.462,-314.782"/>
<polygon fill="black" stroke="black" points="444.818,-311.277 434.301,-312.552 443.318,-318.114 444.818,-311.277"/>
</g>
<!-- 7 -->
<g id="node8" class="node"><title>7</title>
<ellipse fill="none" stroke="black" cx="728" cy="-306" rx="27" ry="18"/>
<text text-anchor="middle" x="728" y="-302.3" font-family="Times New Roman,serif" font-size="14.00">and</text>
</g>
<!-- 1&#45;&gt;7 -->
<g id="edge8" class="edge"><title>1&#45;&gt;7</title>
<path fill="none" stroke="black" d="M728,-359.697C728,-351.983 728,-342.712 728,-334.112"/>
<polygon fill="black" stroke="black" points="731.5,-334.104 728,-324.104 724.5,-334.104 731.5,-334.104"/>
</g>
<!-- 3 -->
<g id="node4" class="node"><title>3</title>
<ellipse fill="none" stroke="black" cx="256" cy="-234" rx="28.3955" ry="18"/>
<text text-anchor="middle" x="256" y="-230.3" font-family="Times New Roman,serif" font-size="14.00">scale</text>
</g>
<!-- 2&#45;&gt;3 -->
<g id="edge10" class="edge"><title>2&#45;&gt;3</title>
<path fill="none" stroke="black" d="M387.403,-295.119C361.314,-283.183 317.219,-263.009 287.378,-249.356"/>
<polygon fill="black" stroke="black" points="288.781,-246.149 278.232,-245.171 285.869,-252.514 288.781,-246.149"/>
</g>
<!-- 4 -->
<g id="node5" class="node"><title>4</title>
<ellipse fill="none" stroke="black" cx="180" cy="-162" rx="30.3206" ry="18"/>
<text text-anchor="middle" x="180" y="-158.3" font-family="Times New Roman,serif" font-size="14.00">100.0</text>
</g>
<!-- 3&#45;&gt;4 -->
<g id="edge12" class="edge"><title>3&#45;&gt;4</title>
<path fill="none" stroke="black" d="M240.62,-218.834C229.946,-209.003 215.528,-195.723 203.432,-184.582"/>
<polygon fill="black" stroke="black" points="205.607,-181.827 195.88,-177.626 200.864,-186.976 205.607,-181.827"/>
</g>
<!-- 5 -->
<g id="node6" class="node"><title>5</title>
<ellipse fill="none" stroke="black" cx="256" cy="-162" rx="27" ry="18"/>
<text text-anchor="middle" x="256" y="-158.3" font-family="Times New Roman,serif" font-size="14.00">one</text>
</g>
<!-- 3&#45;&gt;5 -->
<g id="edge14" class="edge"><title>3&#45;&gt;5</title>
<path fill="none" stroke="black" d="M256,-215.697C256,-207.983 256,-198.712 256,-190.112"/>
<polygon fill="black" stroke="black" points="259.5,-190.104 256,-180.104 252.5,-190.104 259.5,-190.104"/>
</g>
<!-- 6 -->
<g id="node7" class="node"><title>6</title>
<ellipse fill="none" stroke="black" cx="253" cy="-90" rx="253.216" ry="18"/>
<text text-anchor="middle" x="253" y="-86.3" font-family="Times New Roman,serif" font-size="14.00">Financial (Currency &quot;gbp&quot;) (CashFlowType &quot;generalFee&quot;) Nothing</text>
</g>
<!-- 5&#45;&gt;6 -->
<g id="edge16" class="edge"><title>5&#45;&gt;6</title>
<path fill="none" stroke="black" d="M255.258,-143.697C254.928,-135.983 254.531,-126.712 254.162,-118.112"/>
<polygon fill="black" stroke="black" points="257.658,-117.945 253.733,-108.104 250.665,-118.245 257.658,-117.945"/>
</g>
<!-- 8 -->
<g id="node9" class="node"><title>8</title>
<ellipse fill="none" stroke="black" cx="634" cy="-234" rx="29.3479" ry="18"/>
<text text-anchor="middle" x="634" y="-230.3" font-family="Times New Roman,serif" font-size="14.00">when</text>
</g>
<!-- 7&#45;&gt;8 -->
<g id="edge18" class="edge"><title>7&#45;&gt;8</title>
<path fill="none" stroke="black" d="M710.319,-291.834C696.229,-281.341 676.286,-266.489 660.32,-254.6"/>
<polygon fill="black" stroke="black" points="662.032,-251.511 651.921,-248.345 657.851,-257.125 662.032,-251.511"/>
</g>
<!-- 14 -->
<g id="node15" class="node"><title>14</title>
<ellipse fill="none" stroke="black" cx="822" cy="-234" rx="29.3479" ry="18"/>
<text text-anchor="middle" x="822" y="-230.3" font-family="Times New Roman,serif" font-size="14.00">when</text>
</g>
<!-- 7&#45;&gt;14 -->
<g id="edge20" class="edge"><title>7&#45;&gt;14</title>
<path fill="none" stroke="black" d="M745.681,-291.834C759.771,-281.341 779.714,-266.489 795.68,-254.6"/>
<polygon fill="black" stroke="black" points="798.149,-257.125 804.079,-248.345 793.968,-251.511 798.149,-257.125"/>
</g>
<!-- 9 -->
<g id="node10" class="node"><title>9</title>
<ellipse fill="none" stroke="black" cx="446" cy="-162" rx="141.531" ry="18"/>
<text text-anchor="middle" x="446" y="-158.3" font-family="Times New Roman,serif" font-size="14.00">(time == 2010&#45;12&#45;31 00:00:00 UTC)</text>
</g>
<!-- 8&#45;&gt;9 -->
<g id="edge22" class="edge"><title>8&#45;&gt;9</title>
<path fill="none" stroke="black" d="M609.422,-223.849C581.556,-213.473 535.298,-196.249 499.096,-182.77"/>
<polygon fill="black" stroke="black" points="500.244,-179.463 489.652,-179.253 497.802,-186.023 500.244,-179.463"/>
</g>
<!-- 10 -->
<g id="node11" class="node"><title>10</title>
<ellipse fill="none" stroke="black" cx="634" cy="-162" rx="28.3955" ry="18"/>
<text text-anchor="middle" x="634" y="-158.3" font-family="Times New Roman,serif" font-size="14.00">scale</text>
</g>
<!-- 8&#45;&gt;10 -->
<g id="edge24" class="edge"><title>8&#45;&gt;10</title>
<path fill="none" stroke="black" d="M634,-215.697C634,-207.983 634,-198.712 634,-190.112"/>
<polygon fill="black" stroke="black" points="637.5,-190.104 634,-180.104 630.5,-190.104 637.5,-190.104"/>
</g>
<!-- 11 -->
<g id="node12" class="node"><title>11</title>
<ellipse fill="none" stroke="black" cx="560" cy="-90" rx="35.1455" ry="18"/>
<text text-anchor="middle" x="560" y="-86.3" font-family="Times New Roman,serif" font-size="14.00">1000.0</text>
</g>
<!-- 10&#45;&gt;11 -->
<g id="edge26" class="edge"><title>10&#45;&gt;11</title>
<path fill="none" stroke="black" d="M618.667,-146.496C608.555,-136.93 595.108,-124.21 583.64,-113.362"/>
<polygon fill="black" stroke="black" points="585.751,-110.541 576.081,-106.212 580.941,-115.627 585.751,-110.541"/>
</g>
<!-- 12 -->
<g id="node13" class="node"><title>12</title>
<ellipse fill="none" stroke="black" cx="640" cy="-90" rx="27" ry="18"/>
<text text-anchor="middle" x="640" y="-86.3" font-family="Times New Roman,serif" font-size="14.00">one</text>
</g>
<!-- 10&#45;&gt;12 -->
<g id="edge28" class="edge"><title>10&#45;&gt;12</title>
<path fill="none" stroke="black" d="M635.483,-143.697C636.144,-135.983 636.939,-126.712 637.676,-118.112"/>
<polygon fill="black" stroke="black" points="641.167,-118.367 638.534,-108.104 634.193,-117.769 641.167,-118.367"/>
</g>
<!-- 13 -->
<g id="node14" class="node"><title>13</title>
<ellipse fill="none" stroke="black" cx="452" cy="-18" rx="289.312" ry="18"/>
<text text-anchor="middle" x="452" y="-14.3" font-family="Times New Roman,serif" font-size="14.00">Physical (Commodity &quot;gas&quot;) (Unit &quot;thm&quot;) (Location &quot;nbp&quot;) Nothing Nothing</text>
</g>
<!-- 12&#45;&gt;13 -->
<g id="edge30" class="edge"><title>12&#45;&gt;13</title>
<path fill="none" stroke="black" d="M618.846,-78.5553C614.01,-76.2954 608.862,-73.9891 604,-72 574.846,-60.0726 541.899,-48.3742 514.151,-39.0152"/>
<polygon fill="black" stroke="black" points="515.162,-35.6626 504.568,-35.8059 512.939,-42.3003 515.162,-35.6626"/>
</g>
<!-- 15 -->
<g id="node16" class="node"><title>15</title>
<ellipse fill="none" stroke="black" cx="822" cy="-162" rx="141.531" ry="18"/>
<text text-anchor="middle" x="822" y="-158.3" font-family="Times New Roman,serif" font-size="14.00">(time == 2011&#45;01&#45;01 00:00:00 UTC)</text>
</g>
<!-- 14&#45;&gt;15 -->
<g id="edge32" class="edge"><title>14&#45;&gt;15</title>
<path fill="none" stroke="black" d="M822,-215.697C822,-207.983 822,-198.712 822,-190.112"/>
<polygon fill="black" stroke="black" points="825.5,-190.104 822,-180.104 818.5,-190.104 825.5,-190.104"/>
</g>
<!-- 16 -->
<g id="node17" class="node"><title>16</title>
<ellipse fill="none" stroke="black" cx="1010" cy="-162" rx="28.3955" ry="18"/>
<text text-anchor="middle" x="1010" y="-158.3" font-family="Times New Roman,serif" font-size="14.00">scale</text>
</g>
<!-- 14&#45;&gt;16 -->
<g id="edge34" class="edge"><title>14&#45;&gt;16</title>
<path fill="none" stroke="black" d="M847.446,-224.71C877.473,-214.766 928.784,-197.269 972,-180 974.072,-179.172 976.197,-178.296 978.332,-177.397"/>
<polygon fill="black" stroke="black" points="979.839,-180.558 987.624,-173.372 977.057,-174.135 979.839,-180.558"/>
</g>
<!-- 17 -->
<g id="node18" class="node"><title>17</title>
<ellipse fill="none" stroke="black" cx="970" cy="-90" rx="35.1455" ry="18"/>
<text text-anchor="middle" x="970" y="-86.3" font-family="Times New Roman,serif" font-size="14.00">1000.0</text>
</g>
<!-- 16&#45;&gt;17 -->
<g id="edge36" class="edge"><title>16&#45;&gt;17</title>
<path fill="none" stroke="black" d="M1000.72,-144.765C995.945,-136.404 990.009,-126.016 984.632,-116.606"/>
<polygon fill="black" stroke="black" points="987.505,-114.579 979.505,-107.633 981.427,-118.052 987.505,-114.579"/>
</g>
<!-- 18 -->
<g id="node19" class="node"><title>18</title>
<ellipse fill="none" stroke="black" cx="1050" cy="-90" rx="27" ry="18"/>
<text text-anchor="middle" x="1050" y="-86.3" font-family="Times New Roman,serif" font-size="14.00">one</text>
</g>
<!-- 16&#45;&gt;18 -->
<g id="edge38" class="edge"><title>16&#45;&gt;18</title>
<path fill="none" stroke="black" d="M1019.28,-144.765C1024.17,-136.195 1030.29,-125.494 1035.77,-115.9"/>
<polygon fill="black" stroke="black" points="1038.85,-117.566 1040.77,-107.147 1032.77,-114.093 1038.85,-117.566"/>
</g>
<!-- 19 -->
<g id="node20" class="node"><title>19</title>
<ellipse fill="none" stroke="black" cx="1050" cy="-18" rx="289.312" ry="18"/>
<text text-anchor="middle" x="1050" y="-14.3" font-family="Times New Roman,serif" font-size="14.00">Physical (Commodity &quot;gas&quot;) (Unit &quot;thm&quot;) (Location &quot;nbp&quot;) Nothing Nothing</text>
</g>
<!-- 18&#45;&gt;19 -->
<g id="edge40" class="edge"><title>18&#45;&gt;19</title>
<path fill="none" stroke="black" d="M1050,-71.6966C1050,-63.9827 1050,-54.7125 1050,-46.1124"/>
<polygon fill="black" stroke="black" points="1053.5,-46.1043 1050,-36.1043 1046.5,-46.1044 1053.5,-46.1043"/>
</g>
<!-- 21 -->
<g id="node22" class="node"><title>21</title>
<ellipse fill="none" stroke="black" cx="1387" cy="-306" rx="29.3479" ry="18"/>
<text text-anchor="middle" x="1387" y="-302.3" font-family="Times New Roman,serif" font-size="14.00">when</text>
</g>
<!-- 20&#45;&gt;21 -->
<g id="edge42" class="edge"><title>20&#45;&gt;21</title>
<path fill="none" stroke="black" d="M1387,-359.697C1387,-351.983 1387,-342.712 1387,-334.112"/>
<polygon fill="black" stroke="black" points="1390.5,-334.104 1387,-324.104 1383.5,-334.104 1390.5,-334.104"/>
</g>
<!-- 28 -->
<g id="node29" class="node"><title>28</title>
<ellipse fill="none" stroke="black" cx="1681" cy="-306" rx="29.3479" ry="18"/>
<text text-anchor="middle" x="1681" y="-302.3" font-family="Times New Roman,serif" font-size="14.00">when</text>
</g>
<!-- 20&#45;&gt;28 -->
<g id="edge44" class="edge"><title>20&#45;&gt;28</title>
<path fill="none" stroke="black" d="M1412.07,-371.032C1463.92,-358.686 1583.18,-330.291 1643.95,-315.823"/>
<polygon fill="black" stroke="black" points="1644.96,-319.178 1653.88,-313.457 1643.34,-312.368 1644.96,-319.178"/>
</g>
<!-- 22 -->
<g id="node23" class="node"><title>22</title>
<ellipse fill="none" stroke="black" cx="1294" cy="-234" rx="141.531" ry="18"/>
<text text-anchor="middle" x="1294" y="-230.3" font-family="Times New Roman,serif" font-size="14.00">(time == 2010&#45;12&#45;31 00:00:00 UTC)</text>
</g>
<!-- 21&#45;&gt;22 -->
<g id="edge46" class="edge"><title>21&#45;&gt;22</title>
<path fill="none" stroke="black" d="M1369.07,-291.503C1356.54,-282.071 1339.49,-269.238 1324.8,-258.185"/>
<polygon fill="black" stroke="black" points="1326.58,-255.14 1316.48,-251.923 1322.37,-260.733 1326.58,-255.14"/>
</g>
<!-- 23 -->
<g id="node24" class="node"><title>23</title>
<ellipse fill="none" stroke="black" cx="1481" cy="-234" rx="27" ry="18"/>
<text text-anchor="middle" x="1481" y="-230.3" font-family="Times New Roman,serif" font-size="14.00">give</text>
</g>
<!-- 21&#45;&gt;23 -->
<g id="edge48" class="edge"><title>21&#45;&gt;23</title>
<path fill="none" stroke="black" d="M1405.12,-291.503C1419.35,-280.911 1439.33,-266.028 1455.22,-254.195"/>
<polygon fill="black" stroke="black" points="1457.64,-256.762 1463.57,-247.982 1453.46,-251.147 1457.64,-256.762"/>
</g>
<!-- 24 -->
<g id="node25" class="node"><title>24</title>
<ellipse fill="none" stroke="black" cx="1481" cy="-162" rx="28.3955" ry="18"/>
<text text-anchor="middle" x="1481" y="-158.3" font-family="Times New Roman,serif" font-size="14.00">scale</text>
</g>
<!-- 23&#45;&gt;24 -->
<g id="edge50" class="edge"><title>23&#45;&gt;24</title>
<path fill="none" stroke="black" d="M1481,-215.697C1481,-207.983 1481,-198.712 1481,-190.112"/>
<polygon fill="black" stroke="black" points="1484.5,-190.104 1481,-180.104 1477.5,-190.104 1484.5,-190.104"/>
</g>
<!-- 25 -->
<g id="node26" class="node"><title>25</title>
<ellipse fill="none" stroke="black" cx="1478" cy="-90" rx="65.4659" ry="18"/>
<text text-anchor="middle" x="1478" y="-86.3" font-family="Times New Roman,serif" font-size="14.00">(1000.0 * 0.67)</text>
</g>
<!-- 24&#45;&gt;25 -->
<g id="edge52" class="edge"><title>24&#45;&gt;25</title>
<path fill="none" stroke="black" d="M1480.26,-143.697C1479.93,-135.983 1479.53,-126.712 1479.16,-118.112"/>
<polygon fill="black" stroke="black" points="1482.66,-117.945 1478.73,-108.104 1475.66,-118.245 1482.66,-117.945"/>
</g>
<!-- 26 -->
<g id="node27" class="node"><title>26</title>
<ellipse fill="none" stroke="black" cx="1589" cy="-90" rx="27" ry="18"/>
<text text-anchor="middle" x="1589" y="-86.3" font-family="Times New Roman,serif" font-size="14.00">one</text>
</g>
<!-- 24&#45;&gt;26 -->
<g id="edge54" class="edge"><title>24&#45;&gt;26</title>
<path fill="none" stroke="black" d="M1500.06,-148.647C1517.1,-137.601 1542.28,-121.281 1561.5,-108.822"/>
<polygon fill="black" stroke="black" points="1563.64,-111.606 1570.13,-103.23 1559.84,-105.732 1563.64,-111.606"/>
</g>
<!-- 27 -->
<g id="node28" class="node"><title>27</title>
<ellipse fill="none" stroke="black" cx="1589" cy="-18" rx="231.069" ry="18"/>
<text text-anchor="middle" x="1589" y="-14.3" font-family="Times New Roman,serif" font-size="14.00">Financial (Currency &quot;gbp&quot;) (CashFlowType &quot;cash&quot;) Nothing</text>
</g>
<!-- 26&#45;&gt;27 -->
<g id="edge56" class="edge"><title>26&#45;&gt;27</title>
<path fill="none" stroke="black" d="M1589,-71.6966C1589,-63.9827 1589,-54.7125 1589,-46.1124"/>
<polygon fill="black" stroke="black" points="1592.5,-46.1043 1589,-36.1043 1585.5,-46.1044 1592.5,-46.1043"/>
</g>
<!-- 29 -->
<g id="node30" class="node"><title>29</title>
<ellipse fill="none" stroke="black" cx="1681" cy="-234" rx="141.531" ry="18"/>
<text text-anchor="middle" x="1681" y="-230.3" font-family="Times New Roman,serif" font-size="14.00">(time == 2011&#45;01&#45;01 00:00:00 UTC)</text>
</g>
<!-- 28&#45;&gt;29 -->
<g id="edge58" class="edge"><title>28&#45;&gt;29</title>
<path fill="none" stroke="black" d="M1681,-287.697C1681,-279.983 1681,-270.712 1681,-262.112"/>
<polygon fill="black" stroke="black" points="1684.5,-262.104 1681,-252.104 1677.5,-262.104 1684.5,-262.104"/>
</g>
<!-- 30 -->
<g id="node31" class="node"><title>30</title>
<ellipse fill="none" stroke="black" cx="1875" cy="-234" rx="27" ry="18"/>
<text text-anchor="middle" x="1875" y="-230.3" font-family="Times New Roman,serif" font-size="14.00">give</text>
</g>
<!-- 28&#45;&gt;30 -->
<g id="edge60" class="edge"><title>28&#45;&gt;30</title>
<path fill="none" stroke="black" d="M1706.03,-296.406C1735.87,-286.101 1787.22,-268.188 1831,-252 1834.78,-250.602 1838.73,-249.113 1842.65,-247.62"/>
<polygon fill="black" stroke="black" points="1844.13,-250.802 1852.21,-243.95 1841.62,-244.268 1844.13,-250.802"/>
</g>
<!-- 31 -->
<g id="node32" class="node"><title>31</title>
<ellipse fill="none" stroke="black" cx="1902" cy="-162" rx="28.3955" ry="18"/>
<text text-anchor="middle" x="1902" y="-158.3" font-family="Times New Roman,serif" font-size="14.00">scale</text>
</g>
<!-- 30&#45;&gt;31 -->
<g id="edge62" class="edge"><title>30&#45;&gt;31</title>
<path fill="none" stroke="black" d="M1881.4,-216.411C1884.51,-208.335 1888.33,-198.431 1891.83,-189.355"/>
<polygon fill="black" stroke="black" points="1895.13,-190.546 1895.46,-179.956 1888.6,-188.027 1895.13,-190.546"/>
</g>
<!-- 32 -->
<g id="node33" class="node"><title>32</title>
<ellipse fill="none" stroke="black" cx="1902" cy="-90" rx="65.4659" ry="18"/>
<text text-anchor="middle" x="1902" y="-86.3" font-family="Times New Roman,serif" font-size="14.00">(1000.0 * 0.67)</text>
</g>
<!-- 31&#45;&gt;32 -->
<g id="edge64" class="edge"><title>31&#45;&gt;32</title>
<path fill="none" stroke="black" d="M1902,-143.697C1902,-135.983 1902,-126.712 1902,-118.112"/>
<polygon fill="black" stroke="black" points="1905.5,-118.104 1902,-108.104 1898.5,-118.104 1905.5,-118.104"/>
</g>
<!-- 33 -->
<g id="node34" class="node"><title>33</title>
<ellipse fill="none" stroke="black" cx="2066" cy="-90" rx="27" ry="18"/>
<text text-anchor="middle" x="2066" y="-86.3" font-family="Times New Roman,serif" font-size="14.00">one</text>
</g>
<!-- 31&#45;&gt;33 -->
<g id="edge66" class="edge"><title>31&#45;&gt;33</title>
<path fill="none" stroke="black" d="M1924.8,-151.267C1953.36,-139.079 2002.42,-118.138 2034.53,-104.431"/>
<polygon fill="black" stroke="black" points="2036.09,-107.572 2043.91,-100.427 2033.34,-101.134 2036.09,-107.572"/>
</g>
<!-- 34 -->
<g id="node35" class="node"><title>34</title>
<ellipse fill="none" stroke="black" cx="2070" cy="-18" rx="231.069" ry="18"/>
<text text-anchor="middle" x="2070" y="-14.3" font-family="Times New Roman,serif" font-size="14.00">Financial (Currency &quot;gbp&quot;) (CashFlowType &quot;cash&quot;) Nothing</text>
</g>
<!-- 33&#45;&gt;34 -->
<g id="edge68" class="edge"><title>33&#45;&gt;34</title>
<path fill="none" stroke="black" d="M2066.99,-71.6966C2067.43,-63.9827 2067.96,-54.7125 2068.45,-46.1124"/>
<polygon fill="black" stroke="black" points="2071.95,-46.2878 2069.02,-36.1043 2064.96,-45.8883 2071.95,-46.2878"/>
</g>
</g>
</svg>
