<?xml version="1.0" encoding="UTF-8" standalone="no"?>
<!DOCTYPE svg PUBLIC "-//W3C//DTD SVG 1.1//EN"
 "http://www.w3.org/Graphics/SVG/1.1/DTD/svg11.dtd">
<!-- Generated by graphviz version 2.28.0 (20110507.0327)
 -->
<!-- Title: contract Pages: 1 -->
<svg width="756pt" height="1844pt"
 viewBox="0.00 0.00 756.00 1844.00" xmlns="http://www.w3.org/2000/svg" xmlns:xlink="http://www.w3.org/1999/xlink">
<g id="graph1" class="graph" transform="scale(1 1) rotate(0) translate(4 1840)">
<title>contract</title>
<polygon fill="white" stroke="white" points="-4,5 -4,-1840 753,-1840 753,5 -4,5"/>
<!-- 0 -->
<g id="node1" class="node"><title>0</title>
<ellipse fill="none" stroke="black" cx="374" cy="-1809" rx="333.071" ry="26.7407"/>
<text text-anchor="middle" x="374" y="-1812.8" font-family="Times New Roman,serif" font-size="14.00">provide 100.0 Financial (Currency &quot;gbp&quot;) (CashFlowType &quot;generalFee&quot;) Nothing</text>
<text text-anchor="middle" x="374" y="-1797.8" font-family="Times New Roman,serif" font-size="14.00">2011&#45;01&#45;01 00:00:00 UTC</text>
</g>
<!-- 1 -->
<g id="node2" class="node"><title>1</title>
<ellipse fill="none" stroke="black" cx="374" cy="-1719" rx="309.008" ry="26.7407"/>
<text text-anchor="middle" x="374" y="-1722.8" font-family="Times New Roman,serif" font-size="14.00">provide 670.0 Financial (Currency &quot;gbp&quot;) (CashFlowType &quot;cash&quot;) Nothing</text>
<text text-anchor="middle" x="374" y="-1707.8" font-family="Times New Roman,serif" font-size="14.00">2012&#45;04&#45;01 00:00:00 UTC</text>
</g>
<!-- 0&#45;&gt;1 -->
<g id="edge2" class="edge"><title>0&#45;&gt;1</title>
<path fill="none" stroke="black" d="M374,-1782.07C374,-1774 374,-1764.94 374,-1756.3"/>
<polygon fill="black" stroke="black" points="377.5,-1756.05 374,-1746.05 370.5,-1756.05 377.5,-1756.05"/>
</g>
<!-- 2 -->
<g id="node3" class="node"><title>2</title>
<ellipse fill="none" stroke="black" cx="374" cy="-1629" rx="374.15" ry="26.7407"/>
<text text-anchor="middle" x="374" y="-1632.8" font-family="Times New Roman,serif" font-size="14.00">receive 1000.0 Physical (Commodity &quot;gas&quot;) (Unit &quot;thm&quot;) (Location &quot;nbp&quot;) Nothing Nothing</text>
<text text-anchor="middle" x="374" y="-1617.8" font-family="Times New Roman,serif" font-size="14.00">2012&#45;04&#45;01 00:00:00 UTC</text>
</g>
<!-- 1&#45;&gt;2 -->
<g id="edge4" class="edge"><title>1&#45;&gt;2</title>
<path fill="none" stroke="black" d="M374,-1692.07C374,-1684 374,-1674.94 374,-1666.3"/>
<polygon fill="black" stroke="black" points="377.5,-1666.05 374,-1656.05 370.5,-1666.05 377.5,-1666.05"/>
</g>
<!-- 3 -->
<g id="node4" class="node"><title>3</title>
<ellipse fill="none" stroke="black" cx="374" cy="-1539" rx="309.008" ry="26.7407"/>
<text text-anchor="middle" x="374" y="-1542.8" font-family="Times New Roman,serif" font-size="14.00">provide 670.0 Financial (Currency &quot;gbp&quot;) (CashFlowType &quot;cash&quot;) Nothing</text>
<text text-anchor="middle" x="374" y="-1527.8" font-family="Times New Roman,serif" font-size="14.00">2012&#45;04&#45;02 00:00:00 UTC</text>
</g>
<!-- 2&#45;&gt;3 -->
<g id="edge6" class="edge"><title>2&#45;&gt;3</title>
<path fill="none" stroke="black" d="M374,-1602.07C374,-1594 374,-1584.94 374,-1576.3"/>
<polygon fill="black" stroke="black" points="377.5,-1576.05 374,-1566.05 370.5,-1576.05 377.5,-1576.05"/>
</g>
<!-- 4 -->
<g id="node5" class="node"><title>4</title>
<ellipse fill="none" stroke="black" cx="374" cy="-1449" rx="374.15" ry="26.7407"/>
<text text-anchor="middle" x="374" y="-1452.8" font-family="Times New Roman,serif" font-size="14.00">receive 1000.0 Physical (Commodity &quot;gas&quot;) (Unit &quot;thm&quot;) (Location &quot;nbp&quot;) Nothing Nothing</text>
<text text-anchor="middle" x="374" y="-1437.8" font-family="Times New Roman,serif" font-size="14.00">2012&#45;04&#45;02 00:00:00 UTC</text>
</g>
<!-- 3&#45;&gt;4 -->
<g id="edge8" class="edge"><title>3&#45;&gt;4</title>
<path fill="none" stroke="black" d="M374,-1512.07C374,-1504 374,-1494.94 374,-1486.3"/>
<polygon fill="black" stroke="black" points="377.5,-1486.05 374,-1476.05 370.5,-1486.05 377.5,-1486.05"/>
</g>
<!-- 5 -->
<g id="node6" class="node"><title>5</title>
<ellipse fill="none" stroke="black" cx="374" cy="-1359" rx="309.008" ry="26.7407"/>
<text text-anchor="middle" x="374" y="-1362.8" font-family="Times New Roman,serif" font-size="14.00">provide 670.0 Financial (Currency &quot;gbp&quot;) (CashFlowType &quot;cash&quot;) Nothing</text>
<text text-anchor="middle" x="374" y="-1347.8" font-family="Times New Roman,serif" font-size="14.00">2012&#45;04&#45;03 00:00:00 UTC</text>
</g>
<!-- 4&#45;&gt;5 -->
<g id="edge10" class="edge"><title>4&#45;&gt;5</title>
<path fill="none" stroke="black" d="M374,-1422.07C374,-1414 374,-1404.94 374,-1396.3"/>
<polygon fill="black" stroke="black" points="377.5,-1396.05 374,-1386.05 370.5,-1396.05 377.5,-1396.05"/>
</g>
<!-- 6 -->
<g id="node7" class="node"><title>6</title>
<ellipse fill="none" stroke="black" cx="374" cy="-1269" rx="374.15" ry="26.7407"/>
<text text-anchor="middle" x="374" y="-1272.8" font-family="Times New Roman,serif" font-size="14.00">receive 1000.0 Physical (Commodity &quot;gas&quot;) (Unit &quot;thm&quot;) (Location &quot;nbp&quot;) Nothing Nothing</text>
<text text-anchor="middle" x="374" y="-1257.8" font-family="Times New Roman,serif" font-size="14.00">2012&#45;04&#45;03 00:00:00 UTC</text>
</g>
<!-- 5&#45;&gt;6 -->
<g id="edge12" class="edge"><title>5&#45;&gt;6</title>
<path fill="none" stroke="black" d="M374,-1332.07C374,-1324 374,-1314.94 374,-1306.3"/>
<polygon fill="black" stroke="black" points="377.5,-1306.05 374,-1296.05 370.5,-1306.05 377.5,-1306.05"/>
</g>
<!-- 7 -->
<g id="node8" class="node"><title>7</title>
<ellipse fill="none" stroke="black" cx="374" cy="-1179" rx="309.008" ry="26.7407"/>
<text text-anchor="middle" x="374" y="-1182.8" font-family="Times New Roman,serif" font-size="14.00">provide 670.0 Financial (Currency &quot;gbp&quot;) (CashFlowType &quot;cash&quot;) Nothing</text>
<text text-anchor="middle" x="374" y="-1167.8" font-family="Times New Roman,serif" font-size="14.00">2012&#45;04&#45;04 00:00:00 UTC</text>
</g>
<!-- 6&#45;&gt;7 -->
<g id="edge14" class="edge"><title>6&#45;&gt;7</title>
<path fill="none" stroke="black" d="M374,-1242.07C374,-1234 374,-1224.94 374,-1216.3"/>
<polygon fill="black" stroke="black" points="377.5,-1216.05 374,-1206.05 370.5,-1216.05 377.5,-1216.05"/>
</g>
<!-- 8 -->
<g id="node9" class="node"><title>8</title>
<ellipse fill="none" stroke="black" cx="374" cy="-1089" rx="374.15" ry="26.7407"/>
<text text-anchor="middle" x="374" y="-1092.8" font-family="Times New Roman,serif" font-size="14.00">receive 1000.0 Physical (Commodity &quot;gas&quot;) (Unit &quot;thm&quot;) (Location &quot;nbp&quot;) Nothing Nothing</text>
<text text-anchor="middle" x="374" y="-1077.8" font-family="Times New Roman,serif" font-size="14.00">2012&#45;04&#45;04 00:00:00 UTC</text>
</g>
<!-- 7&#45;&gt;8 -->
<g id="edge16" class="edge"><title>7&#45;&gt;8</title>
<path fill="none" stroke="black" d="M374,-1152.07C374,-1144 374,-1134.94 374,-1126.3"/>
<polygon fill="black" stroke="black" points="377.5,-1126.05 374,-1116.05 370.5,-1126.05 377.5,-1126.05"/>
</g>
<!-- 9 -->
<g id="node10" class="node"><title>9</title>
<ellipse fill="none" stroke="black" cx="374" cy="-999" rx="309.008" ry="26.7407"/>
<text text-anchor="middle" x="374" y="-1002.8" font-family="Times New Roman,serif" font-size="14.00">provide 670.0 Financial (Currency &quot;gbp&quot;) (CashFlowType &quot;cash&quot;) Nothing</text>
<text text-anchor="middle" x="374" y="-987.8" font-family="Times New Roman,serif" font-size="14.00">2012&#45;04&#45;05 00:00:00 UTC</text>
</g>
<!-- 8&#45;&gt;9 -->
<g id="edge18" class="edge"><title>8&#45;&gt;9</title>
<path fill="none" stroke="black" d="M374,-1062.07C374,-1054 374,-1044.94 374,-1036.3"/>
<polygon fill="black" stroke="black" points="377.5,-1036.05 374,-1026.05 370.5,-1036.05 377.5,-1036.05"/>
</g>
<!-- 10 -->
<g id="node11" class="node"><title>10</title>
<ellipse fill="none" stroke="black" cx="374" cy="-909" rx="374.15" ry="26.7407"/>
<text text-anchor="middle" x="374" y="-912.8" font-family="Times New Roman,serif" font-size="14.00">receive 1000.0 Physical (Commodity &quot;gas&quot;) (Unit &quot;thm&quot;) (Location &quot;nbp&quot;) Nothing Nothing</text>
<text text-anchor="middle" x="374" y="-897.8" font-family="Times New Roman,serif" font-size="14.00">2012&#45;04&#45;05 00:00:00 UTC</text>
</g>
<!-- 9&#45;&gt;10 -->
<g id="edge20" class="edge"><title>9&#45;&gt;10</title>
<path fill="none" stroke="black" d="M374,-972.073C374,-963.999 374,-954.943 374,-946.296"/>
<polygon fill="black" stroke="black" points="377.5,-946.046 374,-936.046 370.5,-946.046 377.5,-946.046"/>
</g>
<!-- 11 -->
<g id="node12" class="node"><title>11</title>
<ellipse fill="none" stroke="black" cx="374" cy="-819" rx="309.008" ry="26.7407"/>
<text text-anchor="middle" x="374" y="-822.8" font-family="Times New Roman,serif" font-size="14.00">provide 670.0 Financial (Currency &quot;gbp&quot;) (CashFlowType &quot;cash&quot;) Nothing</text>
<text text-anchor="middle" x="374" y="-807.8" font-family="Times New Roman,serif" font-size="14.00">2012&#45;04&#45;06 00:00:00 UTC</text>
</g>
<!-- 10&#45;&gt;11 -->
<g id="edge22" class="edge"><title>10&#45;&gt;11</title>
<path fill="none" stroke="black" d="M374,-882.073C374,-873.999 374,-864.943 374,-856.296"/>
<polygon fill="black" stroke="black" points="377.5,-856.046 374,-846.046 370.5,-856.046 377.5,-856.046"/>
</g>
<!-- 12 -->
<g id="node13" class="node"><title>12</title>
<ellipse fill="none" stroke="black" cx="374" cy="-729" rx="374.15" ry="26.7407"/>
<text text-anchor="middle" x="374" y="-732.8" font-family="Times New Roman,serif" font-size="14.00">receive 1000.0 Physical (Commodity &quot;gas&quot;) (Unit &quot;thm&quot;) (Location &quot;nbp&quot;) Nothing Nothing</text>
<text text-anchor="middle" x="374" y="-717.8" font-family="Times New Roman,serif" font-size="14.00">2012&#45;04&#45;06 00:00:00 UTC</text>
</g>
<!-- 11&#45;&gt;12 -->
<g id="edge24" class="edge"><title>11&#45;&gt;12</title>
<path fill="none" stroke="black" d="M374,-792.073C374,-783.999 374,-774.943 374,-766.296"/>
<polygon fill="black" stroke="black" points="377.5,-766.046 374,-756.046 370.5,-766.046 377.5,-766.046"/>
</g>
<!-- 13 -->
<g id="node14" class="node"><title>13</title>
<ellipse fill="none" stroke="black" cx="374" cy="-639" rx="309.008" ry="26.7407"/>
<text text-anchor="middle" x="374" y="-642.8" font-family="Times New Roman,serif" font-size="14.00">provide 670.0 Financial (Currency &quot;gbp&quot;) (CashFlowType &quot;cash&quot;) Nothing</text>
<text text-anchor="middle" x="374" y="-627.8" font-family="Times New Roman,serif" font-size="14.00">2012&#45;04&#45;07 00:00:00 UTC</text>
</g>
<!-- 12&#45;&gt;13 -->
<g id="edge26" class="edge"><title>12&#45;&gt;13</title>
<path fill="none" stroke="black" d="M374,-702.073C374,-693.999 374,-684.943 374,-676.296"/>
<polygon fill="black" stroke="black" points="377.5,-676.046 374,-666.046 370.5,-676.046 377.5,-676.046"/>
</g>
<!-- 14 -->
<g id="node15" class="node"><title>14</title>
<ellipse fill="none" stroke="black" cx="374" cy="-549" rx="374.15" ry="26.7407"/>
<text text-anchor="middle" x="374" y="-552.8" font-family="Times New Roman,serif" font-size="14.00">receive 1000.0 Physical (Commodity &quot;gas&quot;) (Unit &quot;thm&quot;) (Location &quot;nbp&quot;) Nothing Nothing</text>
<text text-anchor="middle" x="374" y="-537.8" font-family="Times New Roman,serif" font-size="14.00">2012&#45;04&#45;07 00:00:00 UTC</text>
</g>
<!-- 13&#45;&gt;14 -->
<g id="edge28" class="edge"><title>13&#45;&gt;14</title>
<path fill="none" stroke="black" d="M374,-612.073C374,-603.999 374,-594.943 374,-586.296"/>
<polygon fill="black" stroke="black" points="377.5,-586.046 374,-576.046 370.5,-586.046 377.5,-586.046"/>
</g>
<!-- 15 -->
<g id="node16" class="node"><title>15</title>
<ellipse fill="none" stroke="black" cx="374" cy="-459" rx="309.008" ry="26.7407"/>
<text text-anchor="middle" x="374" y="-462.8" font-family="Times New Roman,serif" font-size="14.00">provide 670.0 Financial (Currency &quot;gbp&quot;) (CashFlowType &quot;cash&quot;) Nothing</text>
<text text-anchor="middle" x="374" y="-447.8" font-family="Times New Roman,serif" font-size="14.00">2012&#45;04&#45;08 00:00:00 UTC</text>
</g>
<!-- 14&#45;&gt;15 -->
<g id="edge30" class="edge"><title>14&#45;&gt;15</title>
<path fill="none" stroke="black" d="M374,-522.073C374,-513.999 374,-504.943 374,-496.296"/>
<polygon fill="black" stroke="black" points="377.5,-496.046 374,-486.046 370.5,-496.046 377.5,-496.046"/>
</g>
<!-- 16 -->
<g id="node17" class="node"><title>16</title>
<ellipse fill="none" stroke="black" cx="374" cy="-369" rx="374.15" ry="26.7407"/>
<text text-anchor="middle" x="374" y="-372.8" font-family="Times New Roman,serif" font-size="14.00">receive 1000.0 Physical (Commodity &quot;gas&quot;) (Unit &quot;thm&quot;) (Location &quot;nbp&quot;) Nothing Nothing</text>
<text text-anchor="middle" x="374" y="-357.8" font-family="Times New Roman,serif" font-size="14.00">2012&#45;04&#45;08 00:00:00 UTC</text>
</g>
<!-- 15&#45;&gt;16 -->
<g id="edge32" class="edge"><title>15&#45;&gt;16</title>
<path fill="none" stroke="black" d="M374,-432.073C374,-423.999 374,-414.943 374,-406.296"/>
<polygon fill="black" stroke="black" points="377.5,-406.046 374,-396.046 370.5,-406.046 377.5,-406.046"/>
</g>
<!-- 17 -->
<g id="node18" class="node"><title>17</title>
<ellipse fill="none" stroke="black" cx="374" cy="-279" rx="309.008" ry="26.7407"/>
<text text-anchor="middle" x="374" y="-282.8" font-family="Times New Roman,serif" font-size="14.00">provide 670.0 Financial (Currency &quot;gbp&quot;) (CashFlowType &quot;cash&quot;) Nothing</text>
<text text-anchor="middle" x="374" y="-267.8" font-family="Times New Roman,serif" font-size="14.00">2012&#45;04&#45;09 00:00:00 UTC</text>
</g>
<!-- 16&#45;&gt;17 -->
<g id="edge34" class="edge"><title>16&#45;&gt;17</title>
<path fill="none" stroke="black" d="M374,-342.073C374,-333.999 374,-324.943 374,-316.296"/>
<polygon fill="black" stroke="black" points="377.5,-316.046 374,-306.046 370.5,-316.046 377.5,-316.046"/>
</g>
<!-- 18 -->
<g id="node19" class="node"><title>18</title>
<ellipse fill="none" stroke="black" cx="374" cy="-189" rx="374.15" ry="26.7407"/>
<text text-anchor="middle" x="374" y="-192.8" font-family="Times New Roman,serif" font-size="14.00">receive 1000.0 Physical (Commodity &quot;gas&quot;) (Unit &quot;thm&quot;) (Location &quot;nbp&quot;) Nothing Nothing</text>
<text text-anchor="middle" x="374" y="-177.8" font-family="Times New Roman,serif" font-size="14.00">2012&#45;04&#45;09 00:00:00 UTC</text>
</g>
<!-- 17&#45;&gt;18 -->
<g id="edge36" class="edge"><title>17&#45;&gt;18</title>
<path fill="none" stroke="black" d="M374,-252.073C374,-243.999 374,-234.943 374,-226.296"/>
<polygon fill="black" stroke="black" points="377.5,-226.046 374,-216.046 370.5,-226.046 377.5,-226.046"/>
</g>
<!-- 19 -->
<g id="node20" class="node"><title>19</title>
<ellipse fill="none" stroke="black" cx="374" cy="-99" rx="309.008" ry="26.7407"/>
<text text-anchor="middle" x="374" y="-102.8" font-family="Times New Roman,serif" font-size="14.00">provide 670.0 Financial (Currency &quot;gbp&quot;) (CashFlowType &quot;cash&quot;) Nothing</text>
<text text-anchor="middle" x="374" y="-87.8" font-family="Times New Roman,serif" font-size="14.00">2012&#45;04&#45;10 00:00:00 UTC</text>
</g>
<!-- 18&#45;&gt;19 -->
<g id="edge38" class="edge"><title>18&#45;&gt;19</title>
<path fill="none" stroke="black" d="M374,-162.073C374,-153.999 374,-144.943 374,-136.296"/>
<polygon fill="black" stroke="black" points="377.5,-136.046 374,-126.046 370.5,-136.046 377.5,-136.046"/>
</g>
<!-- 20 -->
<g id="node21" class="node"><title>20</title>
<ellipse fill="none" stroke="black" cx="374" cy="-18" rx="27" ry="18"/>
<text text-anchor="middle" x="374" y="-14.3" font-family="Times New Roman,serif" font-size="14.00">...</text>
</g>
<!-- 19&#45;&gt;20 -->
<g id="edge40" class="edge"><title>19&#45;&gt;20</title>
<path fill="none" stroke="black" d="M374,-71.6941C374,-63.5798 374,-54.6261 374,-46.4375"/>
<polygon fill="black" stroke="black" points="377.5,-46.2484 374,-36.2484 370.5,-46.2484 377.5,-46.2484"/>
</g>
</g>
</svg>
