<?xml version="1.0" encoding="UTF-8" standalone="no"?>
<!DOCTYPE svg PUBLIC "-//W3C//DTD SVG 1.1//EN"
 "http://www.w3.org/Graphics/SVG/1.1/DTD/svg11.dtd">
<!-- Generated by graphviz version 2.28.0 (20110507.0327)
 -->
<!-- Title: contract Pages: 1 -->
<svg width="787pt" height="206pt"
 viewBox="0.00 0.00 787.00 206.00" xmlns="http://www.w3.org/2000/svg" xmlns:xlink="http://www.w3.org/1999/xlink">
<g id="graph1" class="graph" transform="scale(1 1) rotate(0) translate(4 202)">
<title>contract</title>
<polygon fill="white" stroke="white" points="-4,5 -4,-202 784,-202 784,5 -4,5"/>
<!-- 0 -->
<g id="node1" class="node"><title>0</title>
<ellipse fill="none" stroke="black" cx="139" cy="-180" rx="60.1672" ry="18"/>
<text text-anchor="middle" x="139" y="-176.3" font-family="Times New Roman,serif" font-size="14.00">observe cond</text>
</g>
<!-- 1 -->
<g id="node2" class="node"><title>1</title>
<ellipse fill="none" stroke="black" cx="46" cy="-99" rx="46.1964" ry="18"/>
<text text-anchor="middle" x="46" y="-95.3" font-family="Times New Roman,serif" font-size="14.00">cparbFoo</text>
</g>
<!-- 0&#45;&gt;1 -->
<g id="edge2" class="edge"><title>0&#45;&gt;1</title>
<path fill="none" stroke="black" d="M119.73,-162.631C105.994,-150.962 87.3623,-135.136 72.2656,-122.312"/>
<polygon fill="black" stroke="black" points="74.1831,-119.348 64.2958,-115.542 69.6513,-124.683 74.1831,-119.348"/>
</g>
<!-- 2 -->
<g id="node3" class="node"><title>2</title>
<ellipse fill="none" stroke="black" cx="139" cy="-99" rx="28.3955" ry="18"/>
<text text-anchor="middle" x="139" y="-95.3" font-family="Times New Roman,serif" font-size="14.00">done</text>
</g>
<!-- 0&#45;&gt;2 -->
<g id="edge4" class="edge"><title>0&#45;&gt;2</title>
<path fill="none" stroke="black" d="M139,-161.858C139,-151.713 139,-138.634 139,-127.117"/>
<polygon fill="black" stroke="black" points="142.5,-127.108 139,-117.108 135.5,-127.108 142.5,-127.108"/>
</g>
<!-- 3 -->
<g id="node4" class="node"><title>3</title>
<ellipse fill="none" stroke="black" cx="483" cy="-99" rx="296.477" ry="26.7407"/>
<text text-anchor="middle" x="483" y="-102.8" font-family="Times New Roman,serif" font-size="14.00">receive 1.0 Financial (Currency &quot;gbp&quot;) (CashFlowType &quot;cash&quot;) Nothing</text>
<text text-anchor="middle" x="483" y="-87.8" font-family="Times New Roman,serif" font-size="14.00">2011&#45;01&#45;01 00:00:00 UTC</text>
</g>
<!-- 0&#45;&gt;3 -->
<g id="edge6" class="edge"><title>0&#45;&gt;3</title>
<path fill="none" stroke="black" d="M185.393,-168.346C231.96,-157.652 305.534,-140.755 367.875,-126.438"/>
<polygon fill="black" stroke="black" points="368.816,-129.814 377.779,-124.164 367.249,-122.991 368.816,-129.814"/>
</g>
<!-- 4 -->
<g id="node5" class="node"><title>4</title>
<ellipse fill="none" stroke="black" cx="483" cy="-18" rx="28.3955" ry="18"/>
<text text-anchor="middle" x="483" y="-14.3" font-family="Times New Roman,serif" font-size="14.00">done</text>
</g>
<!-- 3&#45;&gt;4 -->
<g id="edge8" class="edge"><title>3&#45;&gt;4</title>
<path fill="none" stroke="black" d="M483,-71.6941C483,-63.5798 483,-54.6261 483,-46.4375"/>
<polygon fill="black" stroke="black" points="486.5,-46.2484 483,-36.2484 479.5,-46.2484 486.5,-46.2484"/>
</g>
</g>
</svg>
