<?xml version="1.0" encoding="UTF-8" standalone="no"?>
<!DOCTYPE svg PUBLIC "-//W3C//DTD SVG 1.1//EN"
 "http://www.w3.org/Graphics/SVG/1.1/DTD/svg11.dtd">
<!-- Generated by graphviz version 2.28.0 (20110507.0327)
 -->
<!-- Title: contract Pages: 1 -->
<svg width="1270pt" height="1664pt"
 viewBox="0.00 0.00 1270.00 1664.00" xmlns="http://www.w3.org/2000/svg" xmlns:xlink="http://www.w3.org/1999/xlink">
<g id="graph1" class="graph" transform="scale(1 1) rotate(0) translate(4 1660)">
<title>contract</title>
<polygon fill="white" stroke="white" points="-4,5 -4,-1660 1267,-1660 1267,5 -4,5"/>
<!-- 0 -->
<g id="node1" class="node"><title>0</title>
<ellipse fill="none" stroke="black" cx="789" cy="-1629" rx="114.327" ry="26.7407"/>
<text text-anchor="middle" x="789" y="-1632.8" font-family="Times New Roman,serif" font-size="14.00">wait</text>
<text text-anchor="middle" x="789" y="-1617.8" font-family="Times New Roman,serif" font-size="14.00">2011&#45;01&#45;01 00:00:00 UTC</text>
</g>
<!-- 1 -->
<g id="node2" class="node"><title>1</title>
<ellipse fill="none" stroke="black" cx="789" cy="-1548" rx="46.1964" ry="18"/>
<text text-anchor="middle" x="789" y="-1544.3" font-family="Times New Roman,serif" font-size="14.00">cparbFoo</text>
</g>
<!-- 0&#45;&gt;1 -->
<g id="edge2" class="edge"><title>0&#45;&gt;1</title>
<path fill="none" stroke="black" d="M789,-1601.69C789,-1593.58 789,-1584.63 789,-1576.44"/>
<polygon fill="black" stroke="black" points="792.5,-1576.25 789,-1566.25 785.5,-1576.25 792.5,-1576.25"/>
</g>
<!-- 2 -->
<g id="node3" class="node"><title>2</title>
<ellipse fill="none" stroke="black" cx="789" cy="-1467" rx="114.327" ry="26.7407"/>
<text text-anchor="middle" x="789" y="-1470.8" font-family="Times New Roman,serif" font-size="14.00">wait</text>
<text text-anchor="middle" x="789" y="-1455.8" font-family="Times New Roman,serif" font-size="14.00">2011&#45;01&#45;01 00:00:00 UTC</text>
</g>
<!-- 1&#45;&gt;2 -->
<g id="edge4" class="edge"><title>1&#45;&gt;2</title>
<path fill="none" stroke="black" d="M789,-1529.86C789,-1522.36 789,-1513.25 789,-1504.36"/>
<polygon fill="black" stroke="black" points="792.5,-1504.13 789,-1494.13 785.5,-1504.13 792.5,-1504.13"/>
</g>
<!-- 3 -->
<g id="node4" class="node"><title>3</title>
<ellipse fill="none" stroke="black" cx="691" cy="-1386" rx="66.4165" ry="18"/>
<text text-anchor="middle" x="691" y="-1382.3" font-family="Times New Roman,serif" font-size="14.00">(not cparbFoo)</text>
</g>
<!-- 2&#45;&gt;3 -->
<g id="edge6" class="edge"><title>2&#45;&gt;3</title>
<path fill="none" stroke="black" d="M757.992,-1441C745.599,-1431.01 731.423,-1419.59 719.313,-1409.82"/>
<polygon fill="black" stroke="black" points="721.288,-1406.92 711.306,-1403.37 716.894,-1412.37 721.288,-1406.92"/>
</g>
<!-- 32 -->
<g id="node33" class="node"><title>32</title>
<ellipse fill="none" stroke="black" cx="888" cy="-1386" rx="34.1708" ry="18"/>
<text text-anchor="middle" x="888" y="-1382.3" font-family="Times New Roman,serif" font-size="14.00">option</text>
</g>
<!-- 2&#45;&gt;32 -->
<g id="edge8" class="edge"><title>2&#45;&gt;32</title>
<path fill="none" stroke="black" d="M820.324,-1441C833.707,-1430.32 849.149,-1418 861.9,-1407.83"/>
<polygon fill="black" stroke="black" points="864.209,-1410.46 869.842,-1401.49 859.842,-1404.99 864.209,-1410.46"/>
</g>
<!-- 4 -->
<g id="node5" class="node"><title>4</title>
<ellipse fill="none" stroke="black" cx="536" cy="-1305" rx="114.327" ry="26.7407"/>
<text text-anchor="middle" x="536" y="-1308.8" font-family="Times New Roman,serif" font-size="14.00">wait</text>
<text text-anchor="middle" x="536" y="-1293.8" font-family="Times New Roman,serif" font-size="14.00">2011&#45;01&#45;01 00:00:00 UTC</text>
</g>
<!-- 3&#45;&gt;4 -->
<g id="edge10" class="edge"><title>3&#45;&gt;4</title>
<path fill="none" stroke="black" d="M661.114,-1369.77C641.388,-1359.71 614.943,-1346.24 591.447,-1334.26"/>
<polygon fill="black" stroke="black" points="592.768,-1331 582.269,-1329.58 589.589,-1337.24 592.768,-1331"/>
</g>
<!-- 5 -->
<g id="node6" class="node"><title>5</title>
<ellipse fill="none" stroke="black" cx="536" cy="-1224" rx="46.1964" ry="18"/>
<text text-anchor="middle" x="536" y="-1220.3" font-family="Times New Roman,serif" font-size="14.00">cparbFoo</text>
</g>
<!-- 4&#45;&gt;5 -->
<g id="edge12" class="edge"><title>4&#45;&gt;5</title>
<path fill="none" stroke="black" d="M536,-1277.69C536,-1269.58 536,-1260.63 536,-1252.44"/>
<polygon fill="black" stroke="black" points="539.5,-1252.25 536,-1242.25 532.5,-1252.25 539.5,-1252.25"/>
</g>
<!-- 6 -->
<g id="node7" class="node"><title>6</title>
<ellipse fill="none" stroke="black" cx="536" cy="-1143" rx="114.327" ry="26.7407"/>
<text text-anchor="middle" x="536" y="-1146.8" font-family="Times New Roman,serif" font-size="14.00">wait</text>
<text text-anchor="middle" x="536" y="-1131.8" font-family="Times New Roman,serif" font-size="14.00">2011&#45;01&#45;01 00:00:00 UTC</text>
</g>
<!-- 5&#45;&gt;6 -->
<g id="edge14" class="edge"><title>5&#45;&gt;6</title>
<path fill="none" stroke="black" d="M536,-1205.86C536,-1198.36 536,-1189.25 536,-1180.36"/>
<polygon fill="black" stroke="black" points="539.5,-1180.13 536,-1170.13 532.5,-1180.13 539.5,-1180.13"/>
</g>
<!-- 7 -->
<g id="node8" class="node"><title>7</title>
<ellipse fill="none" stroke="black" cx="477" cy="-1062" rx="66.4165" ry="18"/>
<text text-anchor="middle" x="477" y="-1058.3" font-family="Times New Roman,serif" font-size="14.00">(not cparbFoo)</text>
</g>
<!-- 6&#45;&gt;7 -->
<g id="edge16" class="edge"><title>6&#45;&gt;7</title>
<path fill="none" stroke="black" d="M516.681,-1116.13C509.958,-1107.13 502.43,-1097.05 495.753,-1088.11"/>
<polygon fill="black" stroke="black" points="498.454,-1085.88 489.666,-1079.96 492.846,-1090.07 498.454,-1085.88"/>
</g>
<!-- 29 -->
<g id="node30" class="node"><title>29</title>
<ellipse fill="none" stroke="black" cx="751" cy="-1062" rx="34.1708" ry="18"/>
<text text-anchor="middle" x="751" y="-1058.3" font-family="Times New Roman,serif" font-size="14.00">option</text>
</g>
<!-- 6&#45;&gt;29 -->
<g id="edge18" class="edge"><title>6&#45;&gt;29</title>
<path fill="none" stroke="black" d="M595.889,-1119.99C633.837,-1106.05 681.703,-1088.46 714.153,-1076.54"/>
<polygon fill="black" stroke="black" points="715.521,-1079.77 723.7,-1073.03 713.107,-1073.19 715.521,-1079.77"/>
</g>
<!-- 8 -->
<g id="node9" class="node"><title>8</title>
<ellipse fill="none" stroke="black" cx="399" cy="-981" rx="114.327" ry="26.7407"/>
<text text-anchor="middle" x="399" y="-984.8" font-family="Times New Roman,serif" font-size="14.00">wait</text>
<text text-anchor="middle" x="399" y="-969.8" font-family="Times New Roman,serif" font-size="14.00">2011&#45;01&#45;01 00:00:00 UTC</text>
</g>
<!-- 7&#45;&gt;8 -->
<g id="edge20" class="edge"><title>7&#45;&gt;8</title>
<path fill="none" stroke="black" d="M460.458,-1044.25C451.966,-1035.64 441.318,-1024.86 431.282,-1014.7"/>
<polygon fill="black" stroke="black" points="433.639,-1012.1 424.122,-1007.44 428.658,-1017.02 433.639,-1012.1"/>
</g>
<!-- 9 -->
<g id="node10" class="node"><title>9</title>
<ellipse fill="none" stroke="black" cx="399" cy="-900" rx="46.1964" ry="18"/>
<text text-anchor="middle" x="399" y="-896.3" font-family="Times New Roman,serif" font-size="14.00">cparbFoo</text>
</g>
<!-- 8&#45;&gt;9 -->
<g id="edge22" class="edge"><title>8&#45;&gt;9</title>
<path fill="none" stroke="black" d="M399,-953.694C399,-945.58 399,-936.626 399,-928.438"/>
<polygon fill="black" stroke="black" points="402.5,-928.248 399,-918.248 395.5,-928.248 402.5,-928.248"/>
</g>
<!-- 10 -->
<g id="node11" class="node"><title>10</title>
<ellipse fill="none" stroke="black" cx="399" cy="-819" rx="114.327" ry="26.7407"/>
<text text-anchor="middle" x="399" y="-822.8" font-family="Times New Roman,serif" font-size="14.00">wait</text>
<text text-anchor="middle" x="399" y="-807.8" font-family="Times New Roman,serif" font-size="14.00">2011&#45;01&#45;01 00:00:00 UTC</text>
</g>
<!-- 9&#45;&gt;10 -->
<g id="edge24" class="edge"><title>9&#45;&gt;10</title>
<path fill="none" stroke="black" d="M399,-881.858C399,-874.356 399,-865.25 399,-856.358"/>
<polygon fill="black" stroke="black" points="402.5,-856.126 399,-846.126 395.5,-856.126 402.5,-856.126"/>
</g>
<!-- 11 -->
<g id="node12" class="node"><title>11</title>
<ellipse fill="none" stroke="black" cx="340" cy="-738" rx="66.4165" ry="18"/>
<text text-anchor="middle" x="340" y="-734.3" font-family="Times New Roman,serif" font-size="14.00">(not cparbFoo)</text>
</g>
<!-- 10&#45;&gt;11 -->
<g id="edge26" class="edge"><title>10&#45;&gt;11</title>
<path fill="none" stroke="black" d="M379.681,-792.132C372.958,-783.13 365.43,-773.05 358.753,-764.11"/>
<polygon fill="black" stroke="black" points="361.454,-761.877 352.666,-755.96 355.846,-766.066 361.454,-761.877"/>
</g>
<!-- 26 -->
<g id="node27" class="node"><title>26</title>
<ellipse fill="none" stroke="black" cx="614" cy="-738" rx="34.1708" ry="18"/>
<text text-anchor="middle" x="614" y="-734.3" font-family="Times New Roman,serif" font-size="14.00">option</text>
</g>
<!-- 10&#45;&gt;26 -->
<g id="edge28" class="edge"><title>10&#45;&gt;26</title>
<path fill="none" stroke="black" d="M458.889,-795.994C496.837,-782.051 544.703,-764.463 577.153,-752.539"/>
<polygon fill="black" stroke="black" points="578.521,-755.765 586.7,-749.031 576.107,-749.195 578.521,-755.765"/>
</g>
<!-- 12 -->
<g id="node13" class="node"><title>12</title>
<ellipse fill="none" stroke="black" cx="262" cy="-657" rx="114.327" ry="26.7407"/>
<text text-anchor="middle" x="262" y="-660.8" font-family="Times New Roman,serif" font-size="14.00">wait</text>
<text text-anchor="middle" x="262" y="-645.8" font-family="Times New Roman,serif" font-size="14.00">2011&#45;01&#45;01 00:00:00 UTC</text>
</g>
<!-- 11&#45;&gt;12 -->
<g id="edge30" class="edge"><title>11&#45;&gt;12</title>
<path fill="none" stroke="black" d="M323.458,-720.246C314.966,-711.645 304.318,-700.861 294.282,-690.696"/>
<polygon fill="black" stroke="black" points="296.639,-688.101 287.122,-683.445 291.658,-693.02 296.639,-688.101"/>
</g>
<!-- 13 -->
<g id="node14" class="node"><title>13</title>
<ellipse fill="none" stroke="black" cx="262" cy="-576" rx="46.1964" ry="18"/>
<text text-anchor="middle" x="262" y="-572.3" font-family="Times New Roman,serif" font-size="14.00">cparbFoo</text>
</g>
<!-- 12&#45;&gt;13 -->
<g id="edge32" class="edge"><title>12&#45;&gt;13</title>
<path fill="none" stroke="black" d="M262,-629.694C262,-621.58 262,-612.626 262,-604.438"/>
<polygon fill="black" stroke="black" points="265.5,-604.248 262,-594.248 258.5,-604.248 265.5,-604.248"/>
</g>
<!-- 14 -->
<g id="node15" class="node"><title>14</title>
<ellipse fill="none" stroke="black" cx="262" cy="-495" rx="114.327" ry="26.7407"/>
<text text-anchor="middle" x="262" y="-498.8" font-family="Times New Roman,serif" font-size="14.00">wait</text>
<text text-anchor="middle" x="262" y="-483.8" font-family="Times New Roman,serif" font-size="14.00">2011&#45;01&#45;01 00:00:00 UTC</text>
</g>
<!-- 13&#45;&gt;14 -->
<g id="edge34" class="edge"><title>13&#45;&gt;14</title>
<path fill="none" stroke="black" d="M262,-557.858C262,-550.356 262,-541.25 262,-532.358"/>
<polygon fill="black" stroke="black" points="265.5,-532.126 262,-522.126 258.5,-532.126 265.5,-532.126"/>
</g>
<!-- 15 -->
<g id="node16" class="node"><title>15</title>
<ellipse fill="none" stroke="black" cx="203" cy="-414" rx="66.4165" ry="18"/>
<text text-anchor="middle" x="203" y="-410.3" font-family="Times New Roman,serif" font-size="14.00">(not cparbFoo)</text>
</g>
<!-- 14&#45;&gt;15 -->
<g id="edge36" class="edge"><title>14&#45;&gt;15</title>
<path fill="none" stroke="black" d="M242.681,-468.132C235.958,-459.13 228.43,-449.05 221.753,-440.11"/>
<polygon fill="black" stroke="black" points="224.454,-437.877 215.666,-431.96 218.846,-442.066 224.454,-437.877"/>
</g>
<!-- 23 -->
<g id="node24" class="node"><title>23</title>
<ellipse fill="none" stroke="black" cx="477" cy="-414" rx="34.1708" ry="18"/>
<text text-anchor="middle" x="477" y="-410.3" font-family="Times New Roman,serif" font-size="14.00">option</text>
</g>
<!-- 14&#45;&gt;23 -->
<g id="edge38" class="edge"><title>14&#45;&gt;23</title>
<path fill="none" stroke="black" d="M321.889,-471.994C359.837,-458.051 407.703,-440.463 440.153,-428.539"/>
<polygon fill="black" stroke="black" points="441.521,-431.765 449.7,-425.031 439.107,-425.195 441.521,-431.765"/>
</g>
<!-- 16 -->
<g id="node17" class="node"><title>16</title>
<ellipse fill="none" stroke="black" cx="125" cy="-333" rx="114.327" ry="26.7407"/>
<text text-anchor="middle" x="125" y="-336.8" font-family="Times New Roman,serif" font-size="14.00">wait</text>
<text text-anchor="middle" x="125" y="-321.8" font-family="Times New Roman,serif" font-size="14.00">2011&#45;01&#45;01 00:00:00 UTC</text>
</g>
<!-- 15&#45;&gt;16 -->
<g id="edge40" class="edge"><title>15&#45;&gt;16</title>
<path fill="none" stroke="black" d="M186.458,-396.246C177.966,-387.645 167.318,-376.861 157.282,-366.696"/>
<polygon fill="black" stroke="black" points="159.639,-364.101 150.122,-359.445 154.658,-369.02 159.639,-364.101"/>
</g>
<!-- 17 -->
<g id="node18" class="node"><title>17</title>
<ellipse fill="none" stroke="black" cx="125" cy="-252" rx="46.1964" ry="18"/>
<text text-anchor="middle" x="125" y="-248.3" font-family="Times New Roman,serif" font-size="14.00">cparbFoo</text>
</g>
<!-- 16&#45;&gt;17 -->
<g id="edge42" class="edge"><title>16&#45;&gt;17</title>
<path fill="none" stroke="black" d="M125,-305.694C125,-297.58 125,-288.626 125,-280.438"/>
<polygon fill="black" stroke="black" points="128.5,-280.248 125,-270.248 121.5,-280.248 128.5,-280.248"/>
</g>
<!-- 18 -->
<g id="node19" class="node"><title>18</title>
<ellipse fill="none" stroke="black" cx="125" cy="-171" rx="114.327" ry="26.7407"/>
<text text-anchor="middle" x="125" y="-174.8" font-family="Times New Roman,serif" font-size="14.00">wait</text>
<text text-anchor="middle" x="125" y="-159.8" font-family="Times New Roman,serif" font-size="14.00">2011&#45;01&#45;01 00:00:00 UTC</text>
</g>
<!-- 17&#45;&gt;18 -->
<g id="edge44" class="edge"><title>17&#45;&gt;18</title>
<path fill="none" stroke="black" d="M125,-233.858C125,-226.356 125,-217.25 125,-208.358"/>
<polygon fill="black" stroke="black" points="128.5,-208.126 125,-198.126 121.5,-208.126 128.5,-208.126"/>
</g>
<!-- 19 -->
<g id="node20" class="node"><title>19</title>
<ellipse fill="none" stroke="black" cx="66" cy="-90" rx="66.4165" ry="18"/>
<text text-anchor="middle" x="66" y="-86.3" font-family="Times New Roman,serif" font-size="14.00">(not cparbFoo)</text>
</g>
<!-- 18&#45;&gt;19 -->
<g id="edge46" class="edge"><title>18&#45;&gt;19</title>
<path fill="none" stroke="black" d="M105.681,-144.132C98.9577,-135.13 91.4299,-125.05 84.7529,-116.11"/>
<polygon fill="black" stroke="black" points="87.4541,-113.877 78.666,-107.96 81.8456,-118.066 87.4541,-113.877"/>
</g>
<!-- 21 -->
<g id="node22" class="node"><title>21</title>
<ellipse fill="none" stroke="black" cx="185" cy="-90" rx="34.1708" ry="18"/>
<text text-anchor="middle" x="185" y="-86.3" font-family="Times New Roman,serif" font-size="14.00">option</text>
</g>
<!-- 18&#45;&gt;21 -->
<g id="edge48" class="edge"><title>18&#45;&gt;21</title>
<path fill="none" stroke="black" d="M144.646,-144.132C151.764,-134.761 159.767,-124.223 166.758,-115.018"/>
<polygon fill="black" stroke="black" points="169.579,-117.091 172.84,-107.011 164.004,-112.857 169.579,-117.091"/>
</g>
<!-- 20 -->
<g id="node21" class="node"><title>20</title>
<ellipse fill="none" stroke="black" cx="66" cy="-18" rx="27" ry="18"/>
<text text-anchor="middle" x="66" y="-14.3" font-family="Times New Roman,serif" font-size="14.00">...</text>
</g>
<!-- 19&#45;&gt;20 -->
<g id="edge50" class="edge"><title>19&#45;&gt;20</title>
<path fill="none" stroke="black" d="M66,-71.6966C66,-63.9827 66,-54.7125 66,-46.1124"/>
<polygon fill="black" stroke="black" points="69.5001,-46.1043 66,-36.1043 62.5001,-46.1044 69.5001,-46.1043"/>
</g>
<!-- 22 -->
<g id="node23" class="node"><title>22</title>
<ellipse fill="none" stroke="black" cx="185" cy="-18" rx="27" ry="18"/>
<text text-anchor="middle" x="185" y="-14.3" font-family="Times New Roman,serif" font-size="14.00">...</text>
</g>
<!-- 21&#45;&gt;22 -->
<g id="edge52" class="edge"><title>21&#45;&gt;22</title>
<path fill="none" stroke="black" d="M185,-71.6966C185,-63.9827 185,-54.7125 185,-46.1124"/>
<polygon fill="black" stroke="black" points="188.5,-46.1043 185,-36.1043 181.5,-46.1044 188.5,-46.1043"/>
</g>
<!-- 24 -->
<g id="node25" class="node"><title>24</title>
<ellipse fill="none" stroke="black" cx="555" cy="-333" rx="296.477" ry="26.7407"/>
<text text-anchor="middle" x="555" y="-336.8" font-family="Times New Roman,serif" font-size="14.00">receive 1.0 Financial (Currency &quot;gbp&quot;) (CashFlowType &quot;cash&quot;) Nothing</text>
<text text-anchor="middle" x="555" y="-321.8" font-family="Times New Roman,serif" font-size="14.00">2011&#45;01&#45;01 00:00:00 UTC</text>
</g>
<!-- 23&#45;&gt;24 -->
<g id="edge54" class="edge"><title>23&#45;&gt;24</title>
<path fill="none" stroke="black" d="M492.039,-397.768C500.6,-389.098 511.675,-377.88 522.144,-367.277"/>
<polygon fill="black" stroke="black" points="524.722,-369.648 529.257,-360.073 519.741,-364.73 524.722,-369.648"/>
</g>
<!-- 25 -->
<g id="node26" class="node"><title>25</title>
<ellipse fill="none" stroke="black" cx="555" cy="-252" rx="28.3955" ry="18"/>
<text text-anchor="middle" x="555" y="-248.3" font-family="Times New Roman,serif" font-size="14.00">done</text>
</g>
<!-- 24&#45;&gt;25 -->
<g id="edge56" class="edge"><title>24&#45;&gt;25</title>
<path fill="none" stroke="black" d="M555,-305.694C555,-297.58 555,-288.626 555,-280.438"/>
<polygon fill="black" stroke="black" points="558.5,-280.248 555,-270.248 551.5,-280.248 558.5,-280.248"/>
</g>
<!-- 27 -->
<g id="node28" class="node"><title>27</title>
<ellipse fill="none" stroke="black" cx="692" cy="-657" rx="296.477" ry="26.7407"/>
<text text-anchor="middle" x="692" y="-660.8" font-family="Times New Roman,serif" font-size="14.00">receive 1.0 Financial (Currency &quot;gbp&quot;) (CashFlowType &quot;cash&quot;) Nothing</text>
<text text-anchor="middle" x="692" y="-645.8" font-family="Times New Roman,serif" font-size="14.00">2011&#45;01&#45;01 00:00:00 UTC</text>
</g>
<!-- 26&#45;&gt;27 -->
<g id="edge58" class="edge"><title>26&#45;&gt;27</title>
<path fill="none" stroke="black" d="M629.039,-721.768C637.6,-713.098 648.675,-701.88 659.144,-691.277"/>
<polygon fill="black" stroke="black" points="661.722,-693.648 666.257,-684.073 656.741,-688.73 661.722,-693.648"/>
</g>
<!-- 28 -->
<g id="node29" class="node"><title>28</title>
<ellipse fill="none" stroke="black" cx="692" cy="-576" rx="28.3955" ry="18"/>
<text text-anchor="middle" x="692" y="-572.3" font-family="Times New Roman,serif" font-size="14.00">done</text>
</g>
<!-- 27&#45;&gt;28 -->
<g id="edge60" class="edge"><title>27&#45;&gt;28</title>
<path fill="none" stroke="black" d="M692,-629.694C692,-621.58 692,-612.626 692,-604.438"/>
<polygon fill="black" stroke="black" points="695.5,-604.248 692,-594.248 688.5,-604.248 695.5,-604.248"/>
</g>
<!-- 30 -->
<g id="node31" class="node"><title>30</title>
<ellipse fill="none" stroke="black" cx="829" cy="-981" rx="296.477" ry="26.7407"/>
<text text-anchor="middle" x="829" y="-984.8" font-family="Times New Roman,serif" font-size="14.00">receive 1.0 Financial (Currency &quot;gbp&quot;) (CashFlowType &quot;cash&quot;) Nothing</text>
<text text-anchor="middle" x="829" y="-969.8" font-family="Times New Roman,serif" font-size="14.00">2011&#45;01&#45;01 00:00:00 UTC</text>
</g>
<!-- 29&#45;&gt;30 -->
<g id="edge62" class="edge"><title>29&#45;&gt;30</title>
<path fill="none" stroke="black" d="M766.039,-1045.77C774.6,-1037.1 785.675,-1025.88 796.144,-1015.28"/>
<polygon fill="black" stroke="black" points="798.722,-1017.65 803.257,-1008.07 793.741,-1012.73 798.722,-1017.65"/>
</g>
<!-- 31 -->
<g id="node32" class="node"><title>31</title>
<ellipse fill="none" stroke="black" cx="829" cy="-900" rx="28.3955" ry="18"/>
<text text-anchor="middle" x="829" y="-896.3" font-family="Times New Roman,serif" font-size="14.00">done</text>
</g>
<!-- 30&#45;&gt;31 -->
<g id="edge64" class="edge"><title>30&#45;&gt;31</title>
<path fill="none" stroke="black" d="M829,-953.694C829,-945.58 829,-936.626 829,-928.438"/>
<polygon fill="black" stroke="black" points="832.5,-928.248 829,-918.248 825.5,-928.248 832.5,-928.248"/>
</g>
<!-- 33 -->
<g id="node34" class="node"><title>33</title>
<ellipse fill="none" stroke="black" cx="966" cy="-1305" rx="296.477" ry="26.7407"/>
<text text-anchor="middle" x="966" y="-1308.8" font-family="Times New Roman,serif" font-size="14.00">receive 1.0 Financial (Currency &quot;gbp&quot;) (CashFlowType &quot;cash&quot;) Nothing</text>
<text text-anchor="middle" x="966" y="-1293.8" font-family="Times New Roman,serif" font-size="14.00">2011&#45;01&#45;01 00:00:00 UTC</text>
</g>
<!-- 32&#45;&gt;33 -->
<g id="edge66" class="edge"><title>32&#45;&gt;33</title>
<path fill="none" stroke="black" d="M903.039,-1369.77C911.6,-1361.1 922.675,-1349.88 933.144,-1339.28"/>
<polygon fill="black" stroke="black" points="935.722,-1341.65 940.257,-1332.07 930.741,-1336.73 935.722,-1341.65"/>
</g>
<!-- 34 -->
<g id="node35" class="node"><title>34</title>
<ellipse fill="none" stroke="black" cx="966" cy="-1224" rx="28.3955" ry="18"/>
<text text-anchor="middle" x="966" y="-1220.3" font-family="Times New Roman,serif" font-size="14.00">done</text>
</g>
<!-- 33&#45;&gt;34 -->
<g id="edge68" class="edge"><title>33&#45;&gt;34</title>
<path fill="none" stroke="black" d="M966,-1277.69C966,-1269.58 966,-1260.63 966,-1252.44"/>
<polygon fill="black" stroke="black" points="969.5,-1252.25 966,-1242.25 962.5,-1252.25 969.5,-1252.25"/>
</g>
</g>
</svg>
