<?xml version="1.0" encoding="UTF-8" standalone="no"?>
<!DOCTYPE svg PUBLIC "-//W3C//DTD SVG 1.1//EN"
 "http://www.w3.org/Graphics/SVG/1.1/DTD/svg11.dtd">
<!-- Generated by graphviz version 2.28.0 (20110507.0327)
 -->
<!-- Title: contract Pages: 1 -->
<svg width="987pt" height="548pt"
 viewBox="0.00 0.00 987.00 548.00" xmlns="http://www.w3.org/2000/svg" xmlns:xlink="http://www.w3.org/1999/xlink">
<g id="graph1" class="graph" transform="scale(1 1) rotate(0) translate(4 544)">
<title>contract</title>
<polygon fill="white" stroke="white" points="-4,5 -4,-544 984,-544 984,5 -4,5"/>
<!-- 0 -->
<g id="node1" class="node"><title>0</title>
<ellipse fill="none" stroke="black" cx="287" cy="-522" rx="29.3479" ry="18"/>
<text text-anchor="middle" x="287" y="-518.3" font-family="Times New Roman,serif" font-size="14.00">when</text>
</g>
<!-- 1 -->
<g id="node2" class="node"><title>1</title>
<ellipse fill="none" stroke="black" cx="202" cy="-450" rx="122.259" ry="18"/>
<text text-anchor="middle" x="202" y="-446.3" font-family="Times New Roman,serif" font-size="14.00">(cpardTemperatureUK &lt;= 5.0)</text>
</g>
<!-- 0&#45;&gt;1 -->
<g id="edge2" class="edge"><title>0&#45;&gt;1</title>
<path fill="none" stroke="black" d="M270.207,-507.17C258.828,-497.799 243.511,-485.186 230.275,-474.285"/>
<polygon fill="black" stroke="black" points="232.301,-471.419 222.356,-467.764 227.851,-476.823 232.301,-471.419"/>
</g>
<!-- 2 -->
<g id="node3" class="node"><title>2</title>
<ellipse fill="none" stroke="black" cx="373" cy="-450" rx="29.3479" ry="18"/>
<text text-anchor="middle" x="373" y="-446.3" font-family="Times New Roman,serif" font-size="14.00">when</text>
</g>
<!-- 0&#45;&gt;2 -->
<g id="edge4" class="edge"><title>0&#45;&gt;2</title>
<path fill="none" stroke="black" d="M303.991,-507.17C316.594,-496.912 333.973,-482.766 348.137,-471.238"/>
<polygon fill="black" stroke="black" points="350.498,-473.828 356.044,-464.801 346.079,-468.399 350.498,-473.828"/>
</g>
<!-- 3 -->
<g id="node4" class="node"><title>3</title>
<ellipse fill="none" stroke="black" cx="277" cy="-378" rx="141.531" ry="18"/>
<text text-anchor="middle" x="277" y="-374.3" font-family="Times New Roman,serif" font-size="14.00">(time == 2011&#45;06&#45;01 00:00:00 UTC)</text>
</g>
<!-- 2&#45;&gt;3 -->
<g id="edge6" class="edge"><title>2&#45;&gt;3</title>
<path fill="none" stroke="black" d="M354.49,-435.503C341.434,-425.983 323.626,-412.998 308.373,-401.876"/>
<polygon fill="black" stroke="black" points="310.351,-398.986 300.208,-395.923 306.226,-404.643 310.351,-398.986"/>
</g>
<!-- 4 -->
<g id="node5" class="node"><title>4</title>
<ellipse fill="none" stroke="black" cx="470" cy="-378" rx="33.2209" ry="18"/>
<text text-anchor="middle" x="470" y="-374.3" font-family="Times New Roman,serif" font-size="14.00">or opt</text>
</g>
<!-- 2&#45;&gt;4 -->
<g id="edge8" class="edge"><title>2&#45;&gt;4</title>
<path fill="none" stroke="black" d="M391.245,-435.834C405.732,-425.379 426.217,-410.596 442.662,-398.728"/>
<polygon fill="black" stroke="black" points="444.78,-401.516 450.841,-392.826 440.684,-395.84 444.78,-401.516"/>
</g>
<!-- 5 -->
<g id="node6" class="node"><title>5</title>
<ellipse fill="none" stroke="black" cx="434" cy="-306" rx="27" ry="18"/>
<text text-anchor="middle" x="434" y="-302.3" font-family="Times New Roman,serif" font-size="14.00">and</text>
</g>
<!-- 4&#45;&gt;5 -->
<g id="edge10" class="edge"><title>4&#45;&gt;5</title>
<path fill="none" stroke="black" d="M461.469,-360.411C457.164,-352.042 451.851,-341.71 447.047,-332.37"/>
<polygon fill="black" stroke="black" points="450.156,-330.762 442.47,-323.47 443.931,-333.964 450.156,-330.762"/>
</g>
<!-- 15 -->
<g id="node16" class="node"><title>15</title>
<ellipse fill="none" stroke="black" cx="506" cy="-306" rx="27" ry="18"/>
<text text-anchor="middle" x="506" y="-302.3" font-family="Times New Roman,serif" font-size="14.00">zero</text>
</g>
<!-- 4&#45;&gt;15 -->
<g id="edge12" class="edge"><title>4&#45;&gt;15</title>
<path fill="none" stroke="black" d="M478.531,-360.411C482.836,-352.042 488.149,-341.71 492.953,-332.37"/>
<polygon fill="black" stroke="black" points="496.069,-333.964 497.53,-323.47 489.844,-330.762 496.069,-333.964"/>
</g>
<!-- 6 -->
<g id="node7" class="node"><title>6</title>
<ellipse fill="none" stroke="black" cx="361" cy="-234" rx="28.3955" ry="18"/>
<text text-anchor="middle" x="361" y="-230.3" font-family="Times New Roman,serif" font-size="14.00">scale</text>
</g>
<!-- 5&#45;&gt;6 -->
<g id="edge14" class="edge"><title>5&#45;&gt;6</title>
<path fill="none" stroke="black" d="M419.227,-290.834C408.906,-280.938 394.941,-267.546 383.274,-256.359"/>
<polygon fill="black" stroke="black" points="385.642,-253.78 376.001,-249.385 380.797,-258.832 385.642,-253.78"/>
</g>
<!-- 10 -->
<g id="node11" class="node"><title>10</title>
<ellipse fill="none" stroke="black" cx="507" cy="-234" rx="27" ry="18"/>
<text text-anchor="middle" x="507" y="-230.3" font-family="Times New Roman,serif" font-size="14.00">give</text>
</g>
<!-- 5&#45;&gt;10 -->
<g id="edge16" class="edge"><title>5&#45;&gt;10</title>
<path fill="none" stroke="black" d="M448.773,-290.834C459.162,-280.872 473.244,-267.369 484.957,-256.137"/>
<polygon fill="black" stroke="black" points="487.454,-258.592 492.249,-249.144 482.609,-253.539 487.454,-258.592"/>
</g>
<!-- 7 -->
<g id="node8" class="node"><title>7</title>
<ellipse fill="none" stroke="black" cx="289" cy="-162" rx="27" ry="18"/>
<text text-anchor="middle" x="289" y="-158.3" font-family="Times New Roman,serif" font-size="14.00">10.0</text>
</g>
<!-- 6&#45;&gt;7 -->
<g id="edge18" class="edge"><title>6&#45;&gt;7</title>
<path fill="none" stroke="black" d="M346.082,-218.496C336.042,-208.735 322.624,-195.69 311.32,-184.7"/>
<polygon fill="black" stroke="black" points="313.509,-181.947 303.899,-177.485 308.63,-186.966 313.509,-181.947"/>
</g>
<!-- 8 -->
<g id="node9" class="node"><title>8</title>
<ellipse fill="none" stroke="black" cx="361" cy="-162" rx="27" ry="18"/>
<text text-anchor="middle" x="361" y="-158.3" font-family="Times New Roman,serif" font-size="14.00">one</text>
</g>
<!-- 6&#45;&gt;8 -->
<g id="edge20" class="edge"><title>6&#45;&gt;8</title>
<path fill="none" stroke="black" d="M361,-215.697C361,-207.983 361,-198.712 361,-190.112"/>
<polygon fill="black" stroke="black" points="364.5,-190.104 361,-180.104 357.5,-190.104 364.5,-190.104"/>
</g>
<!-- 9 -->
<g id="node10" class="node"><title>9</title>
<ellipse fill="none" stroke="black" cx="289" cy="-90" rx="289.312" ry="18"/>
<text text-anchor="middle" x="289" y="-86.3" font-family="Times New Roman,serif" font-size="14.00">Physical (Commodity &quot;gas&quot;) (Unit &quot;thm&quot;) (Location &quot;nbp&quot;) Nothing Nothing</text>
</g>
<!-- 8&#45;&gt;9 -->
<g id="edge22" class="edge"><title>8&#45;&gt;9</title>
<path fill="none" stroke="black" d="M346.43,-146.834C337.082,-137.746 324.702,-125.71 313.831,-115.141"/>
<polygon fill="black" stroke="black" points="316.211,-112.574 306.602,-108.113 311.332,-117.593 316.211,-112.574"/>
</g>
<!-- 11 -->
<g id="node12" class="node"><title>11</title>
<ellipse fill="none" stroke="black" cx="650" cy="-162" rx="28.3955" ry="18"/>
<text text-anchor="middle" x="650" y="-158.3" font-family="Times New Roman,serif" font-size="14.00">scale</text>
</g>
<!-- 10&#45;&gt;11 -->
<g id="edge24" class="edge"><title>10&#45;&gt;11</title>
<path fill="none" stroke="black" d="M528.1,-222.671C552.146,-210.9 591.666,-191.555 619.164,-178.094"/>
<polygon fill="black" stroke="black" points="620.902,-181.141 628.344,-173.601 617.824,-174.854 620.902,-181.141"/>
</g>
<!-- 12 -->
<g id="node13" class="node"><title>12</title>
<ellipse fill="none" stroke="black" cx="650" cy="-90" rx="52.4675" ry="18"/>
<text text-anchor="middle" x="650" y="-86.3" font-family="Times New Roman,serif" font-size="14.00">(2.5 * 10.0)</text>
</g>
<!-- 11&#45;&gt;12 -->
<g id="edge26" class="edge"><title>11&#45;&gt;12</title>
<path fill="none" stroke="black" d="M650,-143.697C650,-135.983 650,-126.712 650,-118.112"/>
<polygon fill="black" stroke="black" points="653.5,-118.104 650,-108.104 646.5,-118.104 653.5,-118.104"/>
</g>
<!-- 13 -->
<g id="node14" class="node"><title>13</title>
<ellipse fill="none" stroke="black" cx="748" cy="-90" rx="27" ry="18"/>
<text text-anchor="middle" x="748" y="-86.3" font-family="Times New Roman,serif" font-size="14.00">one</text>
</g>
<!-- 11&#45;&gt;13 -->
<g id="edge28" class="edge"><title>11&#45;&gt;13</title>
<path fill="none" stroke="black" d="M668.433,-147.834C683.542,-137.041 705.107,-121.638 721.976,-109.589"/>
<polygon fill="black" stroke="black" points="724.207,-112.296 730.31,-103.636 720.138,-106.6 724.207,-112.296"/>
</g>
<!-- 14 -->
<g id="node15" class="node"><title>14</title>
<ellipse fill="none" stroke="black" cx="748" cy="-18" rx="231.069" ry="18"/>
<text text-anchor="middle" x="748" y="-14.3" font-family="Times New Roman,serif" font-size="14.00">Financial (Currency &quot;gbp&quot;) (CashFlowType &quot;cash&quot;) Nothing</text>
</g>
<!-- 13&#45;&gt;14 -->
<g id="edge30" class="edge"><title>13&#45;&gt;14</title>
<path fill="none" stroke="black" d="M748,-71.6966C748,-63.9827 748,-54.7125 748,-46.1124"/>
<polygon fill="black" stroke="black" points="751.5,-46.1043 748,-36.1043 744.5,-46.1044 751.5,-46.1043"/>
</g>
</g>
</svg>
