<?xml version="1.0" encoding="UTF-8" standalone="no"?>
<!DOCTYPE svg PUBLIC "-//W3C//DTD SVG 1.1//EN"
 "http://www.w3.org/Graphics/SVG/1.1/DTD/svg11.dtd">
<!-- Generated by graphviz version 2.28.0 (20110507.0327)
 -->
<!-- Title: contract Pages: 1 -->
<svg width="945pt" height="188pt"
 viewBox="0.00 0.00 945.00 188.00" xmlns="http://www.w3.org/2000/svg" xmlns:xlink="http://www.w3.org/1999/xlink">
<g id="graph1" class="graph" transform="scale(1 1) rotate(0) translate(4 184)">
<title>contract</title>
<polygon fill="white" stroke="white" points="-4,5 -4,-184 942,-184 942,5 -4,5"/>
<!-- 0 -->
<g id="node1" class="node"><title>0</title>
<ellipse fill="none" stroke="black" cx="332" cy="-162" rx="29.3722" ry="18"/>
<text text-anchor="middle" x="332" y="-158.3" font-family="Times New Roman,serif" font-size="14.00">cond</text>
</g>
<!-- 1 -->
<g id="node2" class="node"><title>1</title>
<ellipse fill="none" stroke="black" cx="240" cy="-90" rx="46.1964" ry="18"/>
<text text-anchor="middle" x="240" y="-86.3" font-family="Times New Roman,serif" font-size="14.00">cparbFoo</text>
</g>
<!-- 0&#45;&gt;1 -->
<g id="edge2" class="edge"><title>0&#45;&gt;1</title>
<path fill="none" stroke="black" d="M314.261,-147.503C301.221,-137.581 283.232,-123.894 268.226,-112.477"/>
<polygon fill="black" stroke="black" points="270.324,-109.675 260.247,-106.405 266.086,-115.246 270.324,-109.675"/>
</g>
<!-- 2 -->
<g id="node3" class="node"><title>2</title>
<ellipse fill="none" stroke="black" cx="332" cy="-90" rx="27" ry="18"/>
<text text-anchor="middle" x="332" y="-86.3" font-family="Times New Roman,serif" font-size="14.00">one</text>
</g>
<!-- 0&#45;&gt;2 -->
<g id="edge4" class="edge"><title>0&#45;&gt;2</title>
<path fill="none" stroke="black" d="M332,-143.697C332,-135.983 332,-126.712 332,-118.112"/>
<polygon fill="black" stroke="black" points="335.5,-118.104 332,-108.104 328.5,-118.104 335.5,-118.104"/>
</g>
<!-- 4 -->
<g id="node5" class="node"><title>4</title>
<ellipse fill="none" stroke="black" cx="607" cy="-90" rx="27" ry="18"/>
<text text-anchor="middle" x="607" y="-86.3" font-family="Times New Roman,serif" font-size="14.00">one</text>
</g>
<!-- 0&#45;&gt;4 -->
<g id="edge6" class="edge"><title>0&#45;&gt;4</title>
<path fill="none" stroke="black" d="M358.368,-154.288C408.358,-141.563 516.884,-113.939 572.55,-99.7692"/>
<polygon fill="black" stroke="black" points="573.475,-103.145 582.302,-97.2867 571.748,-96.3617 573.475,-103.145"/>
</g>
<!-- 3 -->
<g id="node4" class="node"><title>3</title>
<ellipse fill="none" stroke="black" cx="231" cy="-18" rx="231.069" ry="18"/>
<text text-anchor="middle" x="231" y="-14.3" font-family="Times New Roman,serif" font-size="14.00">Financial (Currency &quot;gbp&quot;) (CashFlowType &quot;cash&quot;) Nothing</text>
</g>
<!-- 2&#45;&gt;3 -->
<g id="edge8" class="edge"><title>2&#45;&gt;3</title>
<path fill="none" stroke="black" d="M313.943,-76.4854C300.124,-66.9079 280.685,-53.4348 264.098,-41.9393"/>
<polygon fill="black" stroke="black" points="265.942,-38.959 255.73,-36.1393 261.955,-44.7124 265.942,-38.959"/>
</g>
<!-- 5 -->
<g id="node6" class="node"><title>5</title>
<ellipse fill="none" stroke="black" cx="709" cy="-18" rx="228.17" ry="18"/>
<text text-anchor="middle" x="709" y="-14.3" font-family="Times New Roman,serif" font-size="14.00">Financial (Currency &quot;eur&quot;) (CashFlowType &quot;cash&quot;) Nothing</text>
</g>
<!-- 4&#45;&gt;5 -->
<g id="edge10" class="edge"><title>4&#45;&gt;5</title>
<path fill="none" stroke="black" d="M625.236,-76.4854C639.191,-66.9079 658.824,-53.4348 675.574,-41.9393"/>
<polygon fill="black" stroke="black" points="677.761,-44.6836 684.026,-36.1393 673.8,-38.912 677.761,-44.6836"/>
</g>
</g>
</svg>
