<?xml version="1.0" encoding="UTF-8" standalone="no"?>
<!DOCTYPE svg PUBLIC "-//W3C//DTD SVG 1.1//EN"
 "http://www.w3.org/Graphics/SVG/1.1/DTD/svg11.dtd">
<!-- Generated by graphviz version 2.28.0 (20110507.0327)
 -->
<!-- Title: contract Pages: 1 -->
<svg width="464pt" height="188pt"
 viewBox="0.00 0.00 464.00 188.00" xmlns="http://www.w3.org/2000/svg" xmlns:xlink="http://www.w3.org/1999/xlink">
<g id="graph1" class="graph" transform="scale(1 1) rotate(0) translate(4 184)">
<title>contract</title>
<polygon fill="white" stroke="white" points="-4,5 -4,-184 461,-184 461,5 -4,5"/>
<!-- 0 -->
<g id="node1" class="node"><title>0</title>
<ellipse fill="none" stroke="black" cx="182" cy="-162" rx="28.3955" ry="18"/>
<text text-anchor="middle" x="182" y="-158.3" font-family="Times New Roman,serif" font-size="14.00">scale</text>
</g>
<!-- 1 -->
<g id="node2" class="node"><title>1</title>
<ellipse fill="none" stroke="black" cx="136" cy="-90" rx="46.1964" ry="18"/>
<text text-anchor="middle" x="136" y="-86.3" font-family="Times New Roman,serif" font-size="14.00">cpardFoo</text>
</g>
<!-- 0&#45;&gt;1 -->
<g id="edge2" class="edge"><title>0&#45;&gt;1</title>
<path fill="none" stroke="black" d="M171.562,-145.116C165.96,-136.592 158.925,-125.886 152.594,-116.251"/>
<polygon fill="black" stroke="black" points="155.455,-114.232 147.038,-107.797 149.605,-118.077 155.455,-114.232"/>
</g>
<!-- 2 -->
<g id="node3" class="node"><title>2</title>
<ellipse fill="none" stroke="black" cx="228" cy="-90" rx="27" ry="18"/>
<text text-anchor="middle" x="228" y="-86.3" font-family="Times New Roman,serif" font-size="14.00">one</text>
</g>
<!-- 0&#45;&gt;2 -->
<g id="edge4" class="edge"><title>0&#45;&gt;2</title>
<path fill="none" stroke="black" d="M192.438,-145.116C198.202,-136.345 205.484,-125.264 211.955,-115.416"/>
<polygon fill="black" stroke="black" points="215.036,-117.1 217.603,-106.821 209.186,-113.256 215.036,-117.1"/>
</g>
<!-- 3 -->
<g id="node4" class="node"><title>3</title>
<ellipse fill="none" stroke="black" cx="228" cy="-18" rx="228.17" ry="18"/>
<text text-anchor="middle" x="228" y="-14.3" font-family="Times New Roman,serif" font-size="14.00">Financial (Currency &quot;eur&quot;) (CashFlowType &quot;cash&quot;) Nothing</text>
</g>
<!-- 2&#45;&gt;3 -->
<g id="edge6" class="edge"><title>2&#45;&gt;3</title>
<path fill="none" stroke="black" d="M228,-71.6966C228,-63.9827 228,-54.7125 228,-46.1124"/>
<polygon fill="black" stroke="black" points="231.5,-46.1043 228,-36.1043 224.5,-46.1044 231.5,-46.1043"/>
</g>
</g>
</svg>
