<?xml version="1.0" encoding="UTF-8" standalone="no"?>
<!DOCTYPE svg PUBLIC "-//W3C//DTD SVG 1.1//EN"
 "http://www.w3.org/Graphics/SVG/1.1/DTD/svg11.dtd">
<!-- Generated by graphviz version 2.28.0 (20110507.0327)
 -->
<!-- Title: contract Pages: 1 -->
<svg width="756pt" height="314pt"
 viewBox="0.00 0.00 756.00 314.00" xmlns="http://www.w3.org/2000/svg" xmlns:xlink="http://www.w3.org/1999/xlink">
<g id="graph1" class="graph" transform="scale(1 1) rotate(0) translate(4 310)">
<title>contract</title>
<polygon fill="white" stroke="white" points="-4,5 -4,-310 753,-310 753,5 -4,5"/>
<!-- 0 -->
<g id="node1" class="node"><title>0</title>
<ellipse fill="none" stroke="black" cx="374" cy="-279" rx="333.071" ry="26.7407"/>
<text text-anchor="middle" x="374" y="-282.8" font-family="Times New Roman,serif" font-size="14.00">provide 100.0 Financial (Currency &quot;gbp&quot;) (CashFlowType &quot;generalFee&quot;) Nothing</text>
<text text-anchor="middle" x="374" y="-267.8" font-family="Times New Roman,serif" font-size="14.00">2011&#45;01&#45;01 00:00:00 UTC</text>
</g>
<!-- 1 -->
<g id="node2" class="node"><title>1</title>
<ellipse fill="none" stroke="black" cx="374" cy="-189" rx="309.008" ry="26.7407"/>
<text text-anchor="middle" x="374" y="-192.8" font-family="Times New Roman,serif" font-size="14.00">provide 670.0 Financial (Currency &quot;gbp&quot;) (CashFlowType &quot;cash&quot;) Nothing</text>
<text text-anchor="middle" x="374" y="-177.8" font-family="Times New Roman,serif" font-size="14.00">2011&#45;01&#45;01 00:00:00 UTC</text>
</g>
<!-- 0&#45;&gt;1 -->
<g id="edge2" class="edge"><title>0&#45;&gt;1</title>
<path fill="none" stroke="black" d="M374,-252.073C374,-243.999 374,-234.943 374,-226.296"/>
<polygon fill="black" stroke="black" points="377.5,-226.046 374,-216.046 370.5,-226.046 377.5,-226.046"/>
</g>
<!-- 2 -->
<g id="node3" class="node"><title>2</title>
<ellipse fill="none" stroke="black" cx="374" cy="-99" rx="374.15" ry="26.7407"/>
<text text-anchor="middle" x="374" y="-102.8" font-family="Times New Roman,serif" font-size="14.00">receive 1000.0 Physical (Commodity &quot;gas&quot;) (Unit &quot;thm&quot;) (Location &quot;nbp&quot;) Nothing Nothing</text>
<text text-anchor="middle" x="374" y="-87.8" font-family="Times New Roman,serif" font-size="14.00">2011&#45;01&#45;01 00:00:00 UTC</text>
</g>
<!-- 1&#45;&gt;2 -->
<g id="edge4" class="edge"><title>1&#45;&gt;2</title>
<path fill="none" stroke="black" d="M374,-162.073C374,-153.999 374,-144.943 374,-136.296"/>
<polygon fill="black" stroke="black" points="377.5,-136.046 374,-126.046 370.5,-136.046 377.5,-136.046"/>
</g>
<!-- 3 -->
<g id="node4" class="node"><title>3</title>
<ellipse fill="none" stroke="black" cx="374" cy="-18" rx="28.3955" ry="18"/>
<text text-anchor="middle" x="374" y="-14.3" font-family="Times New Roman,serif" font-size="14.00">done</text>
</g>
<!-- 2&#45;&gt;3 -->
<g id="edge6" class="edge"><title>2&#45;&gt;3</title>
<path fill="none" stroke="black" d="M374,-71.6941C374,-63.5798 374,-54.6261 374,-46.4375"/>
<polygon fill="black" stroke="black" points="377.5,-46.2484 374,-36.2484 370.5,-46.2484 377.5,-46.2484"/>
</g>
</g>
</svg>
