<?xml version="1.0" encoding="UTF-8" standalone="no"?>
<!DOCTYPE svg PUBLIC "-//W3C//DTD SVG 1.1//EN"
 "http://www.w3.org/Graphics/SVG/1.1/DTD/svg11.dtd">
<!-- Generated by graphviz version 2.28.0 (20110507.0327)
 -->
<!-- Title: contract Pages: 1 -->
<svg width="743pt" height="260pt"
 viewBox="0.00 0.00 743.00 260.00" xmlns="http://www.w3.org/2000/svg" xmlns:xlink="http://www.w3.org/1999/xlink">
<g id="graph1" class="graph" transform="scale(1 1) rotate(0) translate(4 256)">
<title>contract</title>
<polygon fill="white" stroke="white" points="-4,5 -4,-256 740,-256 740,5 -4,5"/>
<!-- 0 -->
<g id="node1" class="node"><title>0</title>
<ellipse fill="none" stroke="black" cx="394" cy="-234" rx="27" ry="18"/>
<text text-anchor="middle" x="394" y="-230.3" font-family="Times New Roman,serif" font-size="14.00">and</text>
</g>
<!-- 1 -->
<g id="node2" class="node"><title>1</title>
<ellipse fill="none" stroke="black" cx="333" cy="-162" rx="27" ry="18"/>
<text text-anchor="middle" x="333" y="-158.3" font-family="Times New Roman,serif" font-size="14.00">one</text>
</g>
<!-- 0&#45;&gt;1 -->
<g id="edge2" class="edge"><title>0&#45;&gt;1</title>
<path fill="none" stroke="black" d="M381.063,-218.155C372.814,-208.689 361.965,-196.238 352.662,-185.563"/>
<polygon fill="black" stroke="black" points="355.126,-183.063 345.918,-177.824 349.849,-187.662 355.126,-183.063"/>
</g>
<!-- 3 -->
<g id="node4" class="node"><title>3</title>
<ellipse fill="none" stroke="black" cx="456" cy="-162" rx="27" ry="18"/>
<text text-anchor="middle" x="456" y="-158.3" font-family="Times New Roman,serif" font-size="14.00">give</text>
</g>
<!-- 0&#45;&gt;3 -->
<g id="edge4" class="edge"><title>0&#45;&gt;3</title>
<path fill="none" stroke="black" d="M407.149,-218.155C415.533,-208.689 426.56,-196.238 436.016,-185.563"/>
<polygon fill="black" stroke="black" points="438.86,-187.63 442.87,-177.824 433.62,-182.989 438.86,-187.63"/>
</g>
<!-- 2 -->
<g id="node3" class="node"><title>2</title>
<ellipse fill="none" stroke="black" cx="231" cy="-90" rx="231.069" ry="18"/>
<text text-anchor="middle" x="231" y="-86.3" font-family="Times New Roman,serif" font-size="14.00">Financial (Currency &quot;gbp&quot;) (CashFlowType &quot;cash&quot;) Nothing</text>
</g>
<!-- 1&#45;&gt;2 -->
<g id="edge6" class="edge"><title>1&#45;&gt;2</title>
<path fill="none" stroke="black" d="M314.764,-148.485C300.809,-138.908 281.176,-125.435 264.426,-113.939"/>
<polygon fill="black" stroke="black" points="266.2,-110.912 255.974,-108.139 262.239,-116.684 266.2,-110.912"/>
</g>
<!-- 4 -->
<g id="node5" class="node"><title>4</title>
<ellipse fill="none" stroke="black" cx="507" cy="-90" rx="27" ry="18"/>
<text text-anchor="middle" x="507" y="-86.3" font-family="Times New Roman,serif" font-size="14.00">one</text>
</g>
<!-- 3&#45;&gt;4 -->
<g id="edge8" class="edge"><title>3&#45;&gt;4</title>
<path fill="none" stroke="black" d="M467.319,-145.465C473.921,-136.402 482.384,-124.786 489.797,-114.612"/>
<polygon fill="black" stroke="black" points="492.653,-116.635 495.713,-106.492 486.996,-112.513 492.653,-116.635"/>
</g>
<!-- 5 -->
<g id="node6" class="node"><title>5</title>
<ellipse fill="none" stroke="black" cx="507" cy="-18" rx="228.17" ry="18"/>
<text text-anchor="middle" x="507" y="-14.3" font-family="Times New Roman,serif" font-size="14.00">Financial (Currency &quot;eur&quot;) (CashFlowType &quot;cash&quot;) Nothing</text>
</g>
<!-- 4&#45;&gt;5 -->
<g id="edge10" class="edge"><title>4&#45;&gt;5</title>
<path fill="none" stroke="black" d="M507,-71.6966C507,-63.9827 507,-54.7125 507,-46.1124"/>
<polygon fill="black" stroke="black" points="510.5,-46.1043 507,-36.1043 503.5,-46.1044 510.5,-46.1043"/>
</g>
</g>
</svg>
