<?xml version="1.0" encoding="UTF-8" standalone="no"?>
<!DOCTYPE svg PUBLIC "-//W3C//DTD SVG 1.1//EN"
 "http://www.w3.org/Graphics/SVG/1.1/DTD/svg11.dtd">
<!-- Generated by graphviz version 2.28.0 (20110507.0327)
 -->
<!-- Title: contract Pages: 1 -->
<svg width="470pt" height="188pt"
 viewBox="0.00 0.00 470.00 188.00" xmlns="http://www.w3.org/2000/svg" xmlns:xlink="http://www.w3.org/1999/xlink">
<g id="graph1" class="graph" transform="scale(1 1) rotate(0) translate(4 184)">
<title>contract</title>
<polygon fill="white" stroke="white" points="-4,5 -4,-184 467,-184 467,5 -4,5"/>
<!-- 0 -->
<g id="node1" class="node"><title>0</title>
<ellipse fill="none" stroke="black" cx="191" cy="-162" rx="28.3955" ry="18"/>
<text text-anchor="middle" x="191" y="-158.3" font-family="Times New Roman,serif" font-size="14.00">scale</text>
</g>
<!-- 1 -->
<g id="node2" class="node"><title>1</title>
<ellipse fill="none" stroke="black" cx="151" cy="-90" rx="35.1455" ry="18"/>
<text text-anchor="middle" x="151" y="-86.3" font-family="Times New Roman,serif" font-size="14.00">1000.0</text>
</g>
<!-- 0&#45;&gt;1 -->
<g id="edge2" class="edge"><title>0&#45;&gt;1</title>
<path fill="none" stroke="black" d="M181.723,-144.765C176.945,-136.404 171.009,-126.016 165.632,-116.606"/>
<polygon fill="black" stroke="black" points="168.505,-114.579 160.505,-107.633 162.427,-118.052 168.505,-114.579"/>
</g>
<!-- 2 -->
<g id="node3" class="node"><title>2</title>
<ellipse fill="none" stroke="black" cx="231" cy="-90" rx="27" ry="18"/>
<text text-anchor="middle" x="231" y="-86.3" font-family="Times New Roman,serif" font-size="14.00">one</text>
</g>
<!-- 0&#45;&gt;2 -->
<g id="edge4" class="edge"><title>0&#45;&gt;2</title>
<path fill="none" stroke="black" d="M200.277,-144.765C205.174,-136.195 211.289,-125.494 216.771,-115.9"/>
<polygon fill="black" stroke="black" points="219.85,-117.566 221.773,-107.147 213.773,-114.093 219.85,-117.566"/>
</g>
<!-- 3 -->
<g id="node4" class="node"><title>3</title>
<ellipse fill="none" stroke="black" cx="231" cy="-18" rx="231.069" ry="18"/>
<text text-anchor="middle" x="231" y="-14.3" font-family="Times New Roman,serif" font-size="14.00">Financial (Currency &quot;gbp&quot;) (CashFlowType &quot;cash&quot;) Nothing</text>
</g>
<!-- 2&#45;&gt;3 -->
<g id="edge6" class="edge"><title>2&#45;&gt;3</title>
<path fill="none" stroke="black" d="M231,-71.6966C231,-63.9827 231,-54.7125 231,-46.1124"/>
<polygon fill="black" stroke="black" points="234.5,-46.1043 231,-36.1043 227.5,-46.1044 234.5,-46.1043"/>
</g>
</g>
</svg>
