<?xml version="1.0" encoding="UTF-8" standalone="no"?>
<!DOCTYPE svg PUBLIC "-//W3C//DTD SVG 1.1//EN"
 "http://www.w3.org/Graphics/SVG/1.1/DTD/svg11.dtd">
<!-- Generated by graphviz version 2.28.0 (20110507.0327)
 -->
<!-- Title: contract Pages: 1 -->
<svg width="567pt" height="188pt"
 viewBox="0.00 0.00 567.00 188.00" xmlns="http://www.w3.org/2000/svg" xmlns:xlink="http://www.w3.org/1999/xlink">
<g id="graph1" class="graph" transform="scale(1 1) rotate(0) translate(4 184)">
<title>contract</title>
<polygon fill="white" stroke="white" points="-4,5 -4,-184 564,-184 564,5 -4,5"/>
<!-- 0 -->
<g id="node1" class="node"><title>0</title>
<ellipse fill="none" stroke="black" cx="234" cy="-162" rx="29.3479" ry="18"/>
<text text-anchor="middle" x="234" y="-158.3" font-family="Times New Roman,serif" font-size="14.00">when</text>
</g>
<!-- 1 -->
<g id="node2" class="node"><title>1</title>
<ellipse fill="none" stroke="black" cx="141" cy="-90" rx="141.531" ry="18"/>
<text text-anchor="middle" x="141" y="-86.3" font-family="Times New Roman,serif" font-size="14.00">(time == 2013&#45;01&#45;01 00:00:00 UTC)</text>
</g>
<!-- 0&#45;&gt;1 -->
<g id="edge2" class="edge"><title>0&#45;&gt;1</title>
<path fill="none" stroke="black" d="M216.069,-147.503C203.538,-138.071 186.488,-125.238 171.803,-114.185"/>
<polygon fill="black" stroke="black" points="173.578,-111.14 163.483,-107.923 169.368,-116.733 173.578,-111.14"/>
</g>
<!-- 2 -->
<g id="node3" class="node"><title>2</title>
<ellipse fill="none" stroke="black" cx="328" cy="-90" rx="27" ry="18"/>
<text text-anchor="middle" x="328" y="-86.3" font-family="Times New Roman,serif" font-size="14.00">one</text>
</g>
<!-- 0&#45;&gt;2 -->
<g id="edge4" class="edge"><title>0&#45;&gt;2</title>
<path fill="none" stroke="black" d="M252.124,-147.503C266.349,-136.911 286.334,-122.028 302.224,-110.195"/>
<polygon fill="black" stroke="black" points="304.637,-112.762 310.567,-103.982 300.456,-107.147 304.637,-112.762"/>
</g>
<!-- 3 -->
<g id="node4" class="node"><title>3</title>
<ellipse fill="none" stroke="black" cx="328" cy="-18" rx="231.069" ry="18"/>
<text text-anchor="middle" x="328" y="-14.3" font-family="Times New Roman,serif" font-size="14.00">Financial (Currency &quot;gbp&quot;) (CashFlowType &quot;cash&quot;) Nothing</text>
</g>
<!-- 2&#45;&gt;3 -->
<g id="edge6" class="edge"><title>2&#45;&gt;3</title>
<path fill="none" stroke="black" d="M328,-71.6966C328,-63.9827 328,-54.7125 328,-46.1124"/>
<polygon fill="black" stroke="black" points="331.5,-46.1043 328,-36.1043 324.5,-46.1044 331.5,-46.1043"/>
</g>
</g>
</svg>
